<?xml version="1.0" standalone="no"?><svg xmlns:xlink="http://www.w3.org/1999/xlink" xmlns="http://www.w3.org/2000/svg" viewBox="0 0 1000 125" preserveAspectRatio="xMaxYMax slice"><g transform="scale(0.683526999316473)"><rect x="0" y="0" width="1463" height="182.875" fill="#fafafa"/><rect x="0" y="0" width="36.58" height="36.58" fill="#f9e9e8"/><polygon points="0,0 36.58,36.58 0,36.58" fill="#f9edeb"/><rect x="36.58" y="0" width="36.58" height="36.58" fill="#f9e6c7"/><path d="M 36.58 36.58 A 36.58 36.58 0 0 1  73.16 0 L 36.58 36.58 A 36.58 36.58 0 0 0 73.16 0" fill="#f3aea7"/><rect x="73.15" y="0" width="36.58" height="36.58" fill="#f7f9fa"/><path d="M 73.15 0 A 36.58 36.58 0 0 1 109.73 36.58 L 73.15 36.58" fill="#f8e2e0"/><rect x="109.73" y="0" width="36.58" height="36.58" fill="#ee8e84"/><path d="M 109.73 36.58 A 36.58 36.58 0 0 0 146.31 0 L 109.73 0" fill="#f7d3cf"/><rect x="146.3" y="0" width="36.58" height="36.58" fill="#faeedb"/><polygon points="146.3,0 182.88,36.58 146.3,36.58" fill="#f0f8fa"/><rect x="182.875" y="0" width="36.575" height="36.575" fill="#fafafa"/><rect x="182.88" y="0" width="18.29" height="18.29" fill="#f9f1f0"/><polygon points="182.88,0 201.17,0 182.88,18.29" fill="#eff8fa"/><rect x="201.16" y="0" width="18.29" height="18.29" fill="#f7ddda"/><path d="M 201.16 18.29 A 18.29 18.29 0 0 1  219.45 0 L 219.45 18.29" fill="#f6d1ce"/><rect x="182.88" y="18.29" width="18.29" height="18.29" fill="#f8e0de"/><path d="M 182.88 18.29 A 18.29 18.29 0 0 1  201.17 36.58 L 182.88 18.29 A 18.29 18.29 0 0 0 201.17 36.58" fill="#d8f3fa"/><rect x="201.16" y="18.29" width="18.29" height="18.29" fill="#f9dfb6"/><polygon points="201.16,18.29 219.45,18.29 201.16,36.58" fill="#a2e8f9"/><rect x="219.45000000000002" y="0" width="36.575" height="36.575" fill="#fafafa"/><rect x="219.45" y="0" width="18.29" height="18.29" fill="#f3b6b0"/><path d="M 219.45 0 A 18.29 18.29 0 0 1  237.73999999999998 18.29 L 219.45 0 A 18.29 18.29 0 0 0 237.73999999999998 18.29" fill="#f6d1cd"/><rect x="237.74" y="0" width="18.29" height="18.29" fill="#a9e9f9"/><polygon points="256.03000000000003,0 256.03000000000003,18.29 237.74,18.29" fill="#f2b2ab"/><rect x="219.45" y="18.29" width="18.29" height="18.29" fill="#f9d49a"/><path d="M 219.45 18.29 A 18.29 18.29 0 0 1 237.73999999999998 36.58 L 219.45 36.58" fill="#ef978e"/><rect x="237.74" y="18.29" width="18.29" height="18.29" fill="#faf4f3"/><path d="M 237.74 18.29 A 18.29 18.29 0 0 1  256.03000000000003 36.58 L 237.74 18.29 A 18.29 18.29 0 0 0 256.03000000000003 36.58" fill="#f9ebd3"/><rect x="256.02500000000003" y="0" width="36.575" height="36.575" fill="#fafafa"/><rect x="256.03" y="0" width="18.29" height="18.29" fill="#f7d7d4"/><path d="M 256.03 18.29 A 18.29 18.29 0 0 0 274.32 0 L 256.03 0" fill="#b1ebf9"/><rect x="274.31" y="0" width="18.29" height="18.29" fill="#d1f2fa"/><polygon points="292.6,0 292.6,18.29 274.31,18.29" fill="#b7ecf9"/><rect x="256.03" y="18.29" width="18.29" height="18.29" fill="#f8e3e1"/><polygon points="256.03,18.29 274.32,18.29 274.32,36.58" fill="#f8e4e2"/><rect x="274.31" y="18.29" width="18.29" height="18.29" fill="#f8e2e0"/><polygon points="274.31,18.29 292.6,18.29 292.6,36.58" fill="#f9e1bb"/><rect x="292.6" y="0" width="36.58" height="36.58" fill="#faf2e5"/><polygon points="329.18,0 329.18,36.58 292.6,36.58" fill="#eaf7fa"/><rect x="329.18" y="0" width="36.58" height="36.58" fill="#fafafa"/><path d="M 329.18 0 A 36.58 36.58 0 0 1  365.76 36.58 L 329.18 0 A 36.58 36.58 0 0 0 365.76 36.58" fill="#baedf9"/><rect x="365.75" y="0" width="36.58" height="36.58" fill="#faf8f8"/><polygon points="365.75,0 402.33,0 402.33,36.58" fill="#f2b3ad"/><rect x="402.32500000000005" y="0" width="36.575" height="36.575" fill="#fafafa"/><rect x="402.33" y="0" width="18.29" height="18.29" fill="#faf7f1"/><path d="M 402.33 0 A 18.29 18.29 0 0 1  420.62 18.29 L 402.33 0 A 18.29 18.29 0 0 0 420.62 18.29" fill="#f6bfb9"/><rect x="420.61" y="0" width="18.29" height="18.29" fill="#e9f6fa"/><path d="M 420.61 18.29 A 18.29 18.29 0 0 1  438.90000000000003 0 L 420.61 18.29 A 18.29 18.29 0 0 0 438.90000000000003 0" fill="#f9e7cb"/><rect x="402.33" y="18.29" width="18.29" height="18.29" fill="#faefdf"/><path d="M 402.33 18.29 A 18.29 18.29 0 0 0 420.62 36.58 L 420.62 18.29" fill="#f3bbb5"/><rect x="420.61" y="18.29" width="18.29" height="18.29" fill="#f6c0bb"/><path d="M 420.61 36.58 A 18.29 18.29 0 0 1  438.90000000000003 18.29 L 420.61 36.58 A 18.29 18.29 0 0 0 438.90000000000003 18.29" fill="#c5eff9"/><rect x="438.9" y="0" width="36.58" height="36.58" fill="#f9e1b9"/><polygon points="438.9,0 475.47999999999996,36.58 438.9,36.58" fill="#f7d6d3"/><rect x="475.475" y="0" width="36.575" height="36.575" fill="#fafafa"/><rect x="475.48" y="0" width="18.29" height="18.29" fill="#f7cecb"/><path d="M 475.48 0 A 18.29 18.29 0 0 1 493.77000000000004 18.29 L 475.48 18.29" fill="#d9f3fa"/><rect x="493.76" y="0" width="18.29" height="18.29" fill="#f8eceb"/><path d="M 493.76 0 A 18.29 18.29 0 0 1  512.05 18.29 L 493.76 0 A 18.29 18.29 0 0 0 512.05 18.29" fill="#f7d9d6"/><rect x="475.48" y="18.29" width="18.29" height="18.29" fill="#f9d59c"/><polygon points="475.48,18.29 493.77000000000004,36.58 475.48,36.58" fill="#f4b6af"/><rect x="493.76" y="18.29" width="18.29" height="18.29" fill="#d8f3fa"/><path d="M 493.76 18.29 A 18.29 18.29 0 0 1  512.05 36.58 L 493.76 18.29 A 18.29 18.29 0 0 0 512.05 36.58" fill="#f7ccc8"/><rect x="512.0500000000001" y="0" width="36.575" height="36.575" fill="#fafafa"/><rect x="512.05" y="0" width="18.29" height="18.29" fill="#b8ecf9"/><path d="M 512.05 0 A 18.29 18.29 0 0 1  530.3399999999999 18.29 L 512.05 0 A 18.29 18.29 0 0 0 530.3399999999999 18.29" fill="#f9efee"/><rect x="530.34" y="0" width="18.29" height="18.29" fill="#f4f9fa"/><path d="M 530.34 18.29 A 18.29 18.29 0 0 1  548.63 0 L 548.63 18.29" fill="#f8c574"/><rect x="512.05" y="18.29" width="18.29" height="18.29" fill="#dbf4fa"/><path d="M 512.05 36.58 A 18.29 18.29 0 0 1  530.3399999999999 18.29 L 512.05 36.58 A 18.29 18.29 0 0 0 530.3399999999999 18.29" fill="#f3aba3"/><rect x="530.34" y="18.29" width="18.29" height="18.29" fill="#ea675a"/><path d="M 530.34 36.58 A 18.29 18.29 0 0 1  548.63 18.29 L 530.34 36.58 A 18.29 18.29 0 0 0 548.63 18.29" fill="#f5c1bc"/><rect x="548.625" y="0" width="36.575" height="36.575" fill="#fafafa"/><rect x="548.63" y="0" width="18.29" height="18.29" fill="#e74e3e"/><path d="M 548.63 0 A 18.29 18.29 0 0 1  566.92 18.29 L 548.63 0 A 18.29 18.29 0 0 0 566.92 18.29" fill="#f6c7c2"/><rect x="566.91" y="0" width="18.29" height="18.29" fill="#ec7569"/><path d="M 566.91 0 A 18.29 18.29 0 0 1  585.1999999999999 18.29 L 566.91 0 A 18.29 18.29 0 0 0 585.1999999999999 18.29" fill="#f5b7b1"/><rect x="548.63" y="18.29" width="18.29" height="18.29" fill="#f8c97e"/><path d="M 548.63 36.58 A 18.29 18.29 0 0 0 566.92 18.29 L 548.63 18.29" fill="#f8e4e2"/><rect x="566.91" y="18.29" width="18.29" height="18.29" fill="#f9dfb6"/><path d="M 566.91 36.58 A 18.29 18.29 0 0 1  585.1999999999999 18.29 L 585.1999999999999 36.58" fill="#f6d1cd"/><rect x="585.2" y="0" width="36.575" height="36.575" fill="#fafafa"/><rect x="585.2" y="0" width="18.29" height="18.29" fill="#f6c4bf"/><path d="M 585.2 18.29 A 18.29 18.29 0 0 1  603.49 0 L 585.2 18.29 A 18.29 18.29 0 0 0 603.49 0" fill="#ef978e"/><rect x="603.49" y="0" width="18.29" height="18.29" fill="#dcf4fa"/><path d="M 603.49 18.29 A 18.29 18.29 0 0 1  621.78 0 L 603.49 18.29 A 18.29 18.29 0 0 0 621.78 0" fill="#a2e8f9"/><rect x="585.2" y="18.29" width="18.29" height="18.29" fill="#b7ecf9"/><path d="M 585.2 36.58 A 18.29 18.29 0 0 1  603.49 18.29 L 585.2 36.58 A 18.29 18.29 0 0 0 603.49 18.29" fill="#f9dcad"/><rect x="603.49" y="18.29" width="18.29" height="18.29" fill="#f9e8cd"/><polygon points="603.49,18.29 621.78,36.58 603.49,36.58" fill="#cdf1fa"/><rect x="621.7750000000001" y="0" width="36.575" height="36.575" fill="#fafafa"/><rect x="621.78" y="0" width="18.29" height="18.29" fill="#f9dbaa"/><path d="M 621.78 18.29 A 18.29 18.29 0 0 1  640.0699999999999 0 L 640.0699999999999 18.29" fill="#f4f9fa"/><rect x="640.06" y="0" width="18.29" height="18.29" fill="#faf7f3"/><polygon points="640.06,0 658.3499999999999,0 658.3499999999999,18.29" fill="#f3a59d"/><rect x="621.78" y="18.29" width="18.29" height="18.29" fill="#f09f96"/><path d="M 621.78 18.29 A 18.29 18.29 0 0 1  640.0699999999999 36.58 L 621.78 18.29 A 18.29 18.29 0 0 0 640.0699999999999 36.58" fill="#edf7fa"/><rect x="640.06" y="18.29" width="18.29" height="18.29" fill="#e74c3c"/><polygon points="640.06,18.29 658.3499999999999,36.58 640.06,36.58" fill="#f8e1df"/><rect x="658.35" y="0" width="36.575" height="36.575" fill="#fafafa"/><rect x="658.35" y="0" width="18.29" height="18.29" fill="#bfeef9"/><path d="M 658.35 0 A 18.29 18.29 0 0 1  676.64 18.29 L 658.35 0 A 18.29 18.29 0 0 0 676.64 18.29" fill="#f5c1bc"/><rect x="676.64" y="0" width="18.29" height="18.29" fill="#f9e6c6"/><path d="M 676.64 0 A 18.29 18.29 0 0 1  694.93 18.29 L 676.64 0 A 18.29 18.29 0 0 0 694.93 18.29" fill="#ef9991"/><rect x="658.35" y="18.29" width="18.29" height="18.29" fill="#f9f0ef"/><path d="M 658.35 18.29 A 18.29 18.29 0 0 1  676.64 36.58 L 658.35 18.29 A 18.29 18.29 0 0 0 676.64 36.58" fill="#f3beb9"/><rect x="676.64" y="18.29" width="18.29" height="18.29" fill="#f7d1cd"/><path d="M 676.64 36.58 A 18.29 18.29 0 0 1  694.93 18.29 L 694.93 36.58" fill="#faf5f5"/><rect x="694.93" y="0" width="36.58" height="36.58" fill="#e85748"/><polygon points="731.51,0 731.51,36.58 694.93,36.58" fill="#f9d49a"/><rect x="731.5" y="0" width="36.58" height="36.58" fill="#f29f96"/><polygon points="731.5,0 768.08,0 768.08,36.58" fill="#f9e9cf"/><rect x="768.075" y="0" width="36.575" height="36.575" fill="#fafafa"/><rect x="768.08" y="0" width="18.29" height="18.29" fill="#eb7468"/><polygon points="768.08,0 786.37,0 768.08,18.29" fill="#f3beb8"/><rect x="786.36" y="0" width="18.29" height="18.29" fill="#f3b0a9"/><polygon points="786.36,0 804.65,0 804.65,18.29" fill="#f4b2ab"/><rect x="768.08" y="18.29" width="18.29" height="18.29" fill="#adeaf9"/><polygon points="768.08,18.29 786.37,36.58 768.08,36.58" fill="#cdf1fa"/><rect x="786.36" y="18.29" width="18.29" height="18.29" fill="#f4b1aa"/><path d="M 786.36 36.58 A 18.29 18.29 0 0 1  804.65 18.29 L 786.36 36.58 A 18.29 18.29 0 0 0 804.65 18.29" fill="#ee8e84"/><rect x="804.65" y="0" width="36.58" height="36.58" fill="#faf5f5"/><path d="M 804.65 0 A 36.58 36.58 0 0 1  841.23 36.58 L 804.65 0 A 36.58 36.58 0 0 0 841.23 36.58" fill="#f2a59d"/><rect x="841.225" y="0" width="36.575" height="36.575" fill="#fafafa"/><rect x="841.23" y="0" width="18.29" height="18.29" fill="#f7d6d2"/><path d="M 841.23 0 A 18.29 18.29 0 0 1  859.52 18.29 L 841.23 0 A 18.29 18.29 0 0 0 859.52 18.29" fill="#f8e8e6"/><rect x="859.51" y="0" width="18.29" height="18.29" fill="#ef938a"/><polygon points="859.51,0 877.8,0 859.51,18.29" fill="#f9d398"/><rect x="841.23" y="18.29" width="18.29" height="18.29" fill="#f9e1bc"/><path d="M 841.23 18.29 A 18.29 18.29 0 0 0 859.52 36.58 L 859.52 18.29" fill="#f9d397"/><rect x="859.51" y="18.29" width="18.29" height="18.29" fill="#f6c9c4"/><path d="M 859.51 36.58 A 18.29 18.29 0 0 0 877.8 18.29 L 859.51 18.29" fill="#f9d7a1"/><rect x="877.8" y="0" width="36.58" height="36.58" fill="#f9ebe9"/><path d="M 877.8 0 A 36.58 36.58 0 0 1  914.38 36.58 L 877.8 0 A 36.58 36.58 0 0 0 914.38 36.58" fill="#faeedc"/><rect x="914.3750000000001" y="0" width="36.575" height="36.575" fill="#fafafa"/><rect x="914.38" y="0" width="18.29" height="18.29" fill="#f6c0bb"/><path d="M 914.38 0 A 18.29 18.29 0 0 1 932.67 18.29 L 914.38 18.29" fill="#f2a59c"/><rect x="932.66" y="0" width="18.29" height="18.29" fill="#e9f7fa"/><path d="M 932.66 0 A 18.29 18.29 0 0 1  950.9499999999999 18.29 L 932.66 0 A 18.29 18.29 0 0 0 950.9499999999999 18.29" fill="#ef968d"/><rect x="914.38" y="18.29" width="18.29" height="18.29" fill="#f1a69e"/><path d="M 914.38 18.29 A 18.29 18.29 0 0 1  932.67 36.58 L 914.38 18.29 A 18.29 18.29 0 0 0 932.67 36.58" fill="#ef9289"/><rect x="932.66" y="18.29" width="18.29" height="18.29" fill="#f4b4ad"/><path d="M 932.66 36.58 A 18.29 18.29 0 0 1  950.9499999999999 18.29 L 932.66 36.58 A 18.29 18.29 0 0 0 950.9499999999999 18.29" fill="#f9d294"/><rect x="950.95" y="0" width="36.58" height="36.58" fill="#f1a49c"/><polygon points="987.5300000000001,0 987.5300000000001,36.58 950.95,36.58" fill="#f8d9d6"/><rect x="987.5250000000001" y="0" width="36.575" height="36.575" fill="#fafafa"/><rect x="987.53" y="0" width="18.29" height="18.29" fill="#f3aba4"/><path d="M 987.53 18.29 A 18.29 18.29 0 0 1  1005.8199999999999 0 L 987.53 18.29 A 18.29 18.29 0 0 0 1005.8199999999999 0" fill="#f3afa7"/><rect x="1005.81" y="0" width="18.29" height="18.29" fill="#d5f2fa"/><path d="M 1005.81 0 A 18.29 18.29 0 0 1  1024.1 18.29 L 1005.81 0 A 18.29 18.29 0 0 0 1024.1 18.29" fill="#f7d2ce"/><rect x="987.53" y="18.29" width="18.29" height="18.29" fill="#f9ddaf"/><path d="M 987.53 36.58 A 18.29 18.29 0 0 1  1005.8199999999999 18.29 L 987.53 36.58 A 18.29 18.29 0 0 0 1005.8199999999999 18.29" fill="#f8fafa"/><rect x="1005.81" y="18.29" width="18.29" height="18.29" fill="#f2b4ae"/><polygon points="1024.1,18.29 1024.1,36.58 1005.81,36.58" fill="#faefdd"/><rect x="1024.1" y="0" width="36.58" height="36.58" fill="#f6d5d1"/><path d="M 1024.1 0 A 36.58 36.58 0 0 1 1060.6799999999998 36.58 L 1024.1 36.58" fill="#f9e6c6"/><rect x="1060.68" y="0" width="36.58" height="36.58" fill="#afeaf9"/><path d="M 1060.68 0 A 36.58 36.58 0 0 1  1097.26 36.58 L 1060.68 0 A 36.58 36.58 0 0 0 1097.26 36.58" fill="#f29d94"/><rect x="1097.25" y="0" width="36.575" height="36.575" fill="#fafafa"/><rect x="1097.25" y="0" width="18.29" height="18.29" fill="#f6d3d0"/><polygon points="1097.25,0 1115.54,18.29 1097.25,18.29" fill="#faf2e6"/><rect x="1115.54" y="0" width="18.29" height="18.29" fill="#c7eff9"/><path d="M 1115.54 0 A 18.29 18.29 0 0 1  1133.83 18.29 L 1115.54 0 A 18.29 18.29 0 0 0 1133.83 18.29" fill="#f3bbb6"/><rect x="1097.25" y="18.29" width="18.29" height="18.29" fill="#f5bab4"/><path d="M 1097.25 36.58 A 18.29 18.29 0 0 0 1115.54 18.29 L 1097.25 18.29" fill="#f7d3cf"/><rect x="1115.54" y="18.29" width="18.29" height="18.29" fill="#f2a29a"/><path d="M 1115.54 36.58 A 18.29 18.29 0 0 1  1133.83 18.29 L 1133.83 36.58" fill="#f1968c"/><rect x="1133.825" y="0" width="36.575" height="36.575" fill="#fafafa"/><rect x="1133.83" y="0" width="18.29" height="18.29" fill="#f6d6d3"/><polygon points="1133.83,0 1152.12,0 1133.83,18.29" fill="#faf0e1"/><rect x="1152.11" y="0" width="18.29" height="18.29" fill="#faf7f2"/><path d="M 1152.11 0 A 18.29 18.29 0 0 0 1170.3999999999999 18.29 L 1170.3999999999999 0" fill="#f8c472"/><rect x="1133.83" y="18.29" width="18.29" height="18.29" fill="#faf8f8"/><path d="M 1133.83 36.58 A 18.29 18.29 0 0 1  1152.12 18.29 L 1152.12 36.58" fill="#f8d191"/><rect x="1152.11" y="18.29" width="18.29" height="18.29" fill="#d8f3fa"/><path d="M 1152.11 18.29 A 18.29 18.29 0 0 1  1170.3999999999999 36.58 L 1152.11 18.29 A 18.29 18.29 0 0 0 1170.3999999999999 36.58" fill="#f8fafa"/><rect x="1170.4" y="0" width="36.575" height="36.575" fill="#fafafa"/><rect x="1170.4" y="0" width="18.29" height="18.29" fill="#f6d1cd"/><polygon points="1170.4,0 1188.69,18.29 1170.4,18.29" fill="#c0eef9"/><rect x="1188.69" y="0" width="18.29" height="18.29" fill="#b2ebf9"/><path d="M 1188.69 0 A 18.29 18.29 0 0 1 1206.98 18.29 L 1188.69 18.29" fill="#f6c3be"/><rect x="1170.4" y="18.29" width="18.29" height="18.29" fill="#ee8a80"/><path d="M 1170.4 18.29 A 18.29 18.29 0 0 1  1188.69 36.58 L 1170.4 18.29 A 18.29 18.29 0 0 0 1188.69 36.58" fill="#f8c97d"/><rect x="1188.69" y="18.29" width="18.29" height="18.29" fill="#f7cbc7"/><path d="M 1188.69 18.29 A 18.29 18.29 0 0 1 1206.98 36.58 L 1188.69 36.58" fill="#ee9086"/><rect x="1206.9750000000001" y="0" width="36.575" height="36.575" fill="#fafafa"/><rect x="1206.98" y="0" width="18.29" height="18.29" fill="#f8ddda"/><path d="M 1206.98 18.29 A 18.29 18.29 0 0 1  1225.27 0 L 1225.27 18.29" fill="#f4c3be"/><rect x="1225.26" y="0" width="18.29" height="18.29" fill="#f8ca7f"/><path d="M 1225.26 0 A 18.29 18.29 0 0 1  1243.55 18.29 L 1225.26 0 A 18.29 18.29 0 0 0 1243.55 18.29" fill="#f9e1bb"/><rect x="1206.98" y="18.29" width="18.29" height="18.29" fill="#a3e8f9"/><path d="M 1206.98 18.29 A 18.29 18.29 0 0 1 1225.27 36.58 L 1206.98 36.58" fill="#f7d4d1"/><rect x="1225.26" y="18.29" width="18.29" height="18.29" fill="#f8ca81"/><path d="M 1225.26 18.29 A 18.29 18.29 0 0 1  1243.55 36.58 L 1225.26 18.29 A 18.29 18.29 0 0 0 1243.55 36.58" fill="#cbf0f9"/><rect x="1243.55" y="0" width="36.58" height="36.58" fill="#cef1fa"/><path d="M 1243.55 36.58 A 36.58 36.58 0 0 1  1280.1299999999999 0 L 1280.1299999999999 36.58" fill="#b6ecf9"/><rect x="1280.13" y="0" width="36.58" height="36.58" fill="#f6cfcb"/><path d="M 1280.13 36.58 A 36.58 36.58 0 0 1  1316.71 0 L 1280.13 36.58 A 36.58 36.58 0 0 0 1316.71 0" fill="#c1eef9"/><rect x="1316.7" y="0" width="36.58" height="36.58" fill="#f5b9b3"/><path d="M 1316.7 36.58 A 36.58 36.58 0 0 1  1353.28 0 L 1316.7 36.58 A 36.58 36.58 0 0 0 1353.28 0" fill="#f6c2bd"/><rect x="1353.275" y="0" width="36.575" height="36.575" fill="#fafafa"/><rect x="1353.28" y="0" width="18.29" height="18.29" fill="#ef978e"/><polygon points="1371.57,0 1371.57,18.29 1353.28,18.29" fill="#faf8f6"/><rect x="1371.56" y="0" width="18.29" height="18.29" fill="#a3e8f9"/><path d="M 1371.56 18.29 A 18.29 18.29 0 0 0 1389.85 0 L 1371.56 0" fill="#f29a91"/><rect x="1353.28" y="18.29" width="18.29" height="18.29" fill="#b2ebf9"/><polygon points="1353.28,18.29 1371.57,18.29 1353.28,36.58" fill="#e96153"/><rect x="1371.56" y="18.29" width="18.29" height="18.29" fill="#f8e7e6"/><path d="M 1371.56 36.58 A 18.29 18.29 0 0 1  1389.85 18.29 L 1371.56 36.58 A 18.29 18.29 0 0 0 1389.85 18.29" fill="#f19990"/><rect x="1389.8500000000001" y="0" width="36.575" height="36.575" fill="#fafafa"/><rect x="1389.85" y="0" width="18.29" height="18.29" fill="#ee9086"/><path d="M 1389.85 0 A 18.29 18.29 0 0 1  1408.1399999999999 18.29 L 1389.85 0 A 18.29 18.29 0 0 0 1408.1399999999999 18.29" fill="#f8c779"/><rect x="1408.14" y="0" width="18.29" height="18.29" fill="#f7d6d3"/><path d="M 1408.14 18.29 A 18.29 18.29 0 0 0 1426.43 0 L 1408.14 0" fill="#f8e2df"/><rect x="1389.85" y="18.29" width="18.29" height="18.29" fill="#f6d4d0"/><path d="M 1389.85 36.58 A 18.29 18.29 0 0 1  1408.1399999999999 18.29 L 1389.85 36.58 A 18.29 18.29 0 0 0 1408.1399999999999 18.29" fill="#f9e0b7"/><rect x="1408.14" y="18.29" width="18.29" height="18.29" fill="#f5d0cc"/><path d="M 1408.14 18.29 A 18.29 18.29 0 0 1  1426.43 36.58 L 1408.14 18.29 A 18.29 18.29 0 0 0 1426.43 36.58" fill="#f9f2f1"/><rect x="1426.4250000000002" y="0" width="36.575" height="36.575" fill="#fafafa"/><rect x="1426.43" y="0" width="18.29" height="18.29" fill="#b4ebf9"/><polygon points="1426.43,0 1444.72,18.29 1426.43,18.29" fill="#f4f9fa"/><rect x="1444.71" y="0" width="18.29" height="18.29" fill="#f4f9fa"/><polygon points="1463,0 1463,18.29 1444.71,18.29" fill="#b3ebf9"/><rect x="1426.43" y="18.29" width="18.29" height="18.29" fill="#e95e50"/><path d="M 1426.43 18.29 A 18.29 18.29 0 0 1 1444.72 36.58 L 1426.43 36.58" fill="#f5cdc9"/><rect x="1444.71" y="18.29" width="18.29" height="18.29" fill="#f9deb3"/><polygon points="1444.71,18.29 1463,18.29 1444.71,36.58" fill="#f4c2bd"/><rect x="0" y="36.575" width="36.575" height="36.575" fill="#fafafa"/><rect x="0" y="36.58" width="18.29" height="18.29" fill="#f8e3e1"/><path d="M 0 54.87 A 18.29 18.29 0 0 1  18.29 36.58 L 0 54.87 A 18.29 18.29 0 0 0 18.29 36.58" fill="#caf0f9"/><rect x="18.29" y="36.58" width="18.29" height="18.29" fill="#b9ecf9"/><polygon points="18.29,36.58 36.58,36.58 36.58,54.87" fill="#f5b9b3"/><rect x="0" y="54.86" width="18.29" height="18.29" fill="#fafafa"/><polygon points="0,54.86 18.29,73.15 0,73.15" fill="#b4ebf9"/><rect x="18.29" y="54.86" width="18.29" height="18.29" fill="#f4b3ad"/><path d="M 18.29 73.15 A 18.29 18.29 0 0 1  36.58 54.86 L 18.29 73.15 A 18.29 18.29 0 0 0 36.58 54.86" fill="#faf3e8"/><rect x="36.575" y="36.575" width="36.575" height="36.575" fill="#fafafa"/><rect x="36.58" y="36.58" width="18.29" height="18.29" fill="#d8f3fa"/><path d="M 36.58 54.87 A 18.29 18.29 0 0 1  54.87 36.58 L 36.58 54.87 A 18.29 18.29 0 0 0 54.87 36.58" fill="#a2e8f9"/><rect x="54.86" y="36.58" width="18.29" height="18.29" fill="#d5f2fa"/><polygon points="54.86,36.58 73.15,36.58 54.86,54.87" fill="#f9deb3"/><rect x="36.58" y="54.86" width="18.29" height="18.29" fill="#faeedb"/><polygon points="36.58,54.86 54.87,73.15 36.58,73.15" fill="#f8e5e3"/><rect x="54.86" y="54.86" width="18.29" height="18.29" fill="#faf2e6"/><polygon points="54.86,54.86 73.15,73.15 54.86,73.15" fill="#f9efee"/><rect x="73.15" y="36.575" width="36.575" height="36.575" fill="#fafafa"/><rect x="73.15" y="36.58" width="18.29" height="18.29" fill="#e85546"/><polygon points="91.44,36.58 91.44,54.87 73.15,54.87" fill="#f9ebea"/><rect x="91.44" y="36.58" width="18.29" height="18.29" fill="#f6cac6"/><polygon points="109.72999999999999,36.58 109.72999999999999,54.87 91.44,54.87" fill="#ec7b6f"/><rect x="73.15" y="54.86" width="18.29" height="18.29" fill="#f4c2bd"/><path d="M 73.15 54.86 A 18.29 18.29 0 0 0 91.44 73.15 L 91.44 54.86" fill="#f2afa9"/><rect x="91.44" y="54.86" width="18.29" height="18.29" fill="#ed8075"/><path d="M 91.44 73.15 A 18.29 18.29 0 0 1  109.72999999999999 54.86 L 109.72999999999999 73.15" fill="#f9f3f2"/><rect x="109.72500000000001" y="36.575" width="36.575" height="36.575" fill="#fafafa"/><rect x="109.73" y="36.58" width="18.29" height="18.29" fill="#b3ebf9"/><polygon points="109.73,36.58 128.02,54.87 109.73,54.87" fill="#faf9f9"/><rect x="128.01" y="36.58" width="18.29" height="18.29" fill="#f8dedc"/><path d="M 128.01 36.58 A 18.29 18.29 0 0 0 146.29999999999998 54.87 L 146.29999999999998 36.58" fill="#d9f3fa"/><rect x="109.73" y="54.86" width="18.29" height="18.29" fill="#f8d193"/><path d="M 109.73 73.15 A 18.29 18.29 0 0 0 128.02 54.86 L 109.73 54.86" fill="#eff8fa"/><rect x="128.01" y="54.86" width="18.29" height="18.29" fill="#f9ddb1"/><path d="M 128.01 73.15 A 18.29 18.29 0 0 1  146.29999999999998 54.86 L 128.01 73.15 A 18.29 18.29 0 0 0 146.29999999999998 54.86" fill="#afeaf9"/><rect x="146.3" y="36.575" width="36.575" height="36.575" fill="#fafafa"/><rect x="146.3" y="36.58" width="18.29" height="18.29" fill="#f3afa8"/><polygon points="146.3,36.58 164.59,36.58 164.59,54.87" fill="#beedf9"/><rect x="164.59" y="36.58" width="18.29" height="18.29" fill="#f9e7ca"/><path d="M 164.59 36.58 A 18.29 18.29 0 0 1  182.88 54.87 L 164.59 36.58 A 18.29 18.29 0 0 0 182.88 54.87" fill="#ef9990"/><rect x="146.3" y="54.86" width="18.29" height="18.29" fill="#beedf9"/><polygon points="146.3,54.86 164.59,73.15 146.3,73.15" fill="#f3a9a1"/><rect x="164.59" y="54.86" width="18.29" height="18.29" fill="#f0f8fa"/><path d="M 164.59 54.86 A 18.29 18.29 0 0 1  182.88 73.15 L 164.59 54.86 A 18.29 18.29 0 0 0 182.88 73.15" fill="#f6c7c2"/><rect x="182.875" y="36.575" width="36.575" height="36.575" fill="#fafafa"/><rect x="182.88" y="36.58" width="18.29" height="18.29" fill="#f9d396"/><path d="M 182.88 54.87 A 18.29 18.29 0 0 1  201.17 36.58 L 201.17 54.87" fill="#f9d7a2"/><rect x="201.16" y="36.58" width="18.29" height="18.29" fill="#f8e2df"/><path d="M 201.16 54.87 A 18.29 18.29 0 0 1  219.45 36.58 L 219.45 54.87" fill="#f6cdc8"/><rect x="182.88" y="54.86" width="18.29" height="18.29" fill="#ec766a"/><path d="M 182.88 54.86 A 18.29 18.29 0 0 0 201.17 73.15 L 201.17 54.86" fill="#ef9990"/><rect x="201.16" y="54.86" width="18.29" height="18.29" fill="#faf7f7"/><path d="M 201.16 54.86 A 18.29 18.29 0 0 1 219.45 73.15 L 201.16 73.15" fill="#faf0e0"/><rect x="219.45" y="36.58" width="36.58" height="36.58" fill="#f8d08f"/><path d="M 219.45 73.16 A 36.58 36.58 0 0 1  256.03 36.58 L 219.45 73.16 A 36.58 36.58 0 0 0 256.03 36.58" fill="#f3b6b0"/><rect x="256.02500000000003" y="36.575" width="36.575" height="36.575" fill="#fafafa"/><rect x="256.03" y="36.58" width="18.29" height="18.29" fill="#f8cb83"/><polygon points="274.32,36.58 274.32,54.87 256.03,54.87" fill="#f6beb9"/><rect x="274.31" y="36.58" width="18.29" height="18.29" fill="#f9d398"/><path d="M 274.31 36.58 A 18.29 18.29 0 0 1  292.6 54.87 L 274.31 36.58 A 18.29 18.29 0 0 0 292.6 54.87" fill="#f1948a"/><rect x="256.03" y="54.86" width="18.29" height="18.29" fill="#f9eceb"/><path d="M 256.03 73.15 A 18.29 18.29 0 0 1  274.32 54.86 L 256.03 73.15 A 18.29 18.29 0 0 0 274.32 54.86" fill="#f9ebea"/><rect x="274.31" y="54.86" width="18.29" height="18.29" fill="#caf0f9"/><path d="M 274.31 54.86 A 18.29 18.29 0 0 1 292.6 73.15 L 274.31 73.15" fill="#f9ddb1"/><rect x="292.6" y="36.58" width="36.58" height="36.58" fill="#f9e9cf"/><path d="M 292.6 73.16 A 36.58 36.58 0 0 1  329.18 36.58 L 292.6 73.16 A 36.58 36.58 0 0 0 329.18 36.58" fill="#c0eef9"/><rect x="329.175" y="36.575" width="36.575" height="36.575" fill="#fafafa"/><rect x="329.18" y="36.58" width="18.29" height="18.29" fill="#f6cfcb"/><path d="M 329.18 54.87 A 18.29 18.29 0 0 1  347.47 36.58 L 329.18 54.87 A 18.29 18.29 0 0 0 347.47 36.58" fill="#f9dcad"/><rect x="347.46" y="36.58" width="18.29" height="18.29" fill="#ddf4fa"/><path d="M 347.46 36.58 A 18.29 18.29 0 0 1  365.75 54.87 L 347.46 36.58 A 18.29 18.29 0 0 0 365.75 54.87" fill="#f1a69e"/><rect x="329.18" y="54.86" width="18.29" height="18.29" fill="#faf1e3"/><path d="M 329.18 73.15 A 18.29 18.29 0 0 0 347.47 54.86 L 329.18 54.86" fill="#f8dad7"/><rect x="347.46" y="54.86" width="18.29" height="18.29" fill="#f9daa9"/><polygon points="347.46,54.86 365.75,54.86 365.75,73.15" fill="#f7d9d5"/><rect x="365.75" y="36.58" width="36.58" height="36.58" fill="#faf8f7"/><path d="M 365.75 36.58 A 36.58 36.58 0 0 0 402.33 73.16 L 402.33 36.58" fill="#f8dad7"/><rect x="402.32500000000005" y="36.575" width="36.575" height="36.575" fill="#fafafa"/><rect x="402.33" y="36.58" width="18.29" height="18.29" fill="#f3a9a1"/><polygon points="402.33,36.58 420.62,36.58 420.62,54.87" fill="#faf8f5"/><rect x="420.61" y="36.58" width="18.29" height="18.29" fill="#b1ebf9"/><path d="M 420.61 36.58 A 18.29 18.29 0 0 1  438.90000000000003 54.87 L 420.61 36.58 A 18.29 18.29 0 0 0 438.90000000000003 54.87" fill="#f4c2bd"/><rect x="402.33" y="54.86" width="18.29" height="18.29" fill="#f8e1df"/><path d="M 402.33 54.86 A 18.29 18.29 0 0 1  420.62 73.15 L 402.33 54.86 A 18.29 18.29 0 0 0 420.62 73.15" fill="#f5b9b3"/><rect x="420.61" y="54.86" width="18.29" height="18.29" fill="#f9e9ce"/><path d="M 420.61 54.86 A 18.29 18.29 0 0 1  438.90000000000003 73.15 L 420.61 54.86 A 18.29 18.29 0 0 0 438.90000000000003 73.15" fill="#ea6759"/><rect x="438.90000000000003" y="36.575" width="36.575" height="36.575" fill="#fafafa"/><rect x="438.9" y="36.58" width="18.29" height="18.29" fill="#f6cfcb"/><path d="M 438.9 54.87 A 18.29 18.29 0 0 1  457.19 36.58 L 438.9 54.87 A 18.29 18.29 0 0 0 457.19 36.58" fill="#ea6557"/><rect x="457.19" y="36.58" width="18.29" height="18.29" fill="#f9d398"/><polygon points="457.19,36.58 475.48,54.87 457.19,54.87" fill="#f9dbac"/><rect x="438.9" y="54.86" width="18.29" height="18.29" fill="#fafaf9"/><polygon points="438.9,54.86 457.19,73.15 438.9,73.15" fill="#ecf7fa"/><rect x="457.19" y="54.86" width="18.29" height="18.29" fill="#f6c8c4"/><path d="M 457.19 73.15 A 18.29 18.29 0 0 1  475.48 54.86 L 457.19 73.15 A 18.29 18.29 0 0 0 475.48 54.86" fill="#cef1fa"/><rect x="475.48" y="36.58" width="36.58" height="36.58" fill="#f3a69e"/><path d="M 475.48 36.58 A 36.58 36.58 0 0 1 512.0600000000001 73.16 L 475.48 73.16" fill="#f9e7e5"/><rect x="512.05" y="36.58" width="36.58" height="36.58" fill="#f5bbb6"/><path d="M 512.05 73.16 A 36.58 36.58 0 0 1  548.63 36.58 L 512.05 73.16 A 36.58 36.58 0 0 0 548.63 36.58" fill="#f8fafa"/><rect x="548.63" y="36.58" width="36.58" height="36.58" fill="#f6c8c4"/><path d="M 548.63 73.16 A 36.58 36.58 0 0 1  585.21 36.58 L 548.63 73.16 A 36.58 36.58 0 0 0 585.21 36.58" fill="#f8d090"/><rect x="585.2" y="36.575" width="36.575" height="36.575" fill="#fafafa"/><rect x="585.2" y="36.58" width="18.29" height="18.29" fill="#e9f6fa"/><path d="M 585.2 36.58 A 18.29 18.29 0 0 1 603.49 54.87 L 585.2 54.87" fill="#f2a299"/><rect x="603.49" y="36.58" width="18.29" height="18.29" fill="#faf4f4"/><polygon points="603.49,36.58 621.78,36.58 603.49,54.87" fill="#f8dad8"/><rect x="585.2" y="54.86" width="18.29" height="18.29" fill="#b9ecf9"/><path d="M 585.2 73.15 A 18.29 18.29 0 0 1  603.49 54.86 L 585.2 73.15 A 18.29 18.29 0 0 0 603.49 54.86" fill="#f2afa9"/><rect x="603.49" y="54.86" width="18.29" height="18.29" fill="#f8fafa"/><path d="M 603.49 54.86 A 18.29 18.29 0 0 1  621.78 73.15 L 603.49 54.86 A 18.29 18.29 0 0 0 621.78 73.15" fill="#faf8f6"/><rect x="621.7750000000001" y="36.575" width="36.575" height="36.575" fill="#fafafa"/><rect x="621.78" y="36.58" width="18.29" height="18.29" fill="#f7ddda"/><path d="M 621.78 36.58 A 18.29 18.29 0 0 1 640.0699999999999 54.87 L 621.78 54.87" fill="#d1f1fa"/><rect x="640.06" y="36.58" width="18.29" height="18.29" fill="#faefdd"/><polygon points="640.06,36.58 658.3499999999999,36.58 658.3499999999999,54.87" fill="#ed867c"/><rect x="621.78" y="54.86" width="18.29" height="18.29" fill="#f8c471"/><polygon points="621.78,54.86 640.0699999999999,73.15 621.78,73.15" fill="#f9e1bb"/><rect x="640.06" y="54.86" width="18.29" height="18.29" fill="#f7d7d4"/><path d="M 640.06 73.15 A 18.29 18.29 0 0 1  658.3499999999999 54.86 L 640.06 73.15 A 18.29 18.29 0 0 0 658.3499999999999 54.86" fill="#f6c4c0"/><rect x="658.35" y="36.575" width="36.575" height="36.575" fill="#fafafa"/><rect x="658.35" y="36.58" width="18.29" height="18.29" fill="#f6c8c3"/><path d="M 658.35 54.87 A 18.29 18.29 0 0 1  676.64 36.58 L 676.64 54.87" fill="#ed8479"/><rect x="676.64" y="36.58" width="18.29" height="18.29" fill="#eb7164"/><path d="M 676.64 54.87 A 18.29 18.29 0 0 1  694.93 36.58 L 676.64 54.87 A 18.29 18.29 0 0 0 694.93 36.58" fill="#f2b3ac"/><rect x="658.35" y="54.86" width="18.29" height="18.29" fill="#f9f0ef"/><path d="M 658.35 54.86 A 18.29 18.29 0 0 0 676.64 73.15 L 676.64 54.86" fill="#f6d2ce"/><rect x="676.64" y="54.86" width="18.29" height="18.29" fill="#aeeaf9"/><polygon points="676.64,54.86 694.93,54.86 676.64,73.15" fill="#f8ca81"/><rect x="694.9250000000001" y="36.575" width="36.575" height="36.575" fill="#fafafa"/><rect x="694.93" y="36.58" width="18.29" height="18.29" fill="#ea6658"/><path d="M 694.93 54.87 A 18.29 18.29 0 0 1  713.2199999999999 36.58 L 694.93 54.87 A 18.29 18.29 0 0 0 713.2199999999999 36.58" fill="#c3eff9"/><rect x="713.21" y="36.58" width="18.29" height="18.29" fill="#f6c5c0"/><path d="M 713.21 54.87 A 18.29 18.29 0 0 1  731.5 36.58 L 713.21 54.87 A 18.29 18.29 0 0 0 731.5 36.58" fill="#f9eae8"/><rect x="694.93" y="54.86" width="18.29" height="18.29" fill="#f8c97d"/><path d="M 694.93 54.86 A 18.29 18.29 0 0 0 713.2199999999999 73.15 L 713.2199999999999 54.86" fill="#eef8fa"/><rect x="713.21" y="54.86" width="18.29" height="18.29" fill="#f6c7c3"/><polygon points="713.21,54.86 731.5,54.86 713.21,73.15" fill="#f5c6c1"/><rect x="731.5" y="36.58" width="36.58" height="36.58" fill="#c6eff9"/><polygon points="731.5,36.58 768.08,36.58 731.5,73.16" fill="#b8ecf9"/><rect x="768.08" y="36.58" width="36.58" height="36.58" fill="#f09b93"/><path d="M 768.08 73.16 A 36.58 36.58 0 0 1  804.6600000000001 36.58 L 804.6600000000001 73.16" fill="#aae9f9"/><rect x="804.65" y="36.58" width="36.58" height="36.58" fill="#f8c87c"/><path d="M 804.65 73.16 A 36.58 36.58 0 0 0 841.23 36.58 L 804.65 36.58" fill="#f1978d"/><rect x="841.23" y="36.58" width="36.58" height="36.58" fill="#ec766a"/><polygon points="841.23,36.58 877.8100000000001,73.16 841.23,73.16" fill="#ef9990"/><rect x="877.8000000000001" y="36.575" width="36.575" height="36.575" fill="#fafafa"/><rect x="877.8" y="36.58" width="18.29" height="18.29" fill="#faeeda"/><path d="M 877.8 36.58 A 18.29 18.29 0 0 1  896.0899999999999 54.87 L 877.8 36.58 A 18.29 18.29 0 0 0 896.0899999999999 54.87" fill="#f9ebd4"/><rect x="896.09" y="36.58" width="18.29" height="18.29" fill="#f6ccc7"/><path d="M 896.09 36.58 A 18.29 18.29 0 0 0 914.38 54.87 L 914.38 36.58" fill="#f8e8e7"/><rect x="877.8" y="54.86" width="18.29" height="18.29" fill="#f9ecd7"/><polygon points="877.8,54.86 896.0899999999999,54.86 877.8,73.15" fill="#f7d3cf"/><rect x="896.09" y="54.86" width="18.29" height="18.29" fill="#faeedb"/><path d="M 896.09 73.15 A 18.29 18.29 0 0 1  914.38 54.86 L 896.09 73.15 A 18.29 18.29 0 0 0 914.38 54.86" fill="#faf9f9"/><rect x="914.3750000000001" y="36.575" width="36.575" height="36.575" fill="#fafafa"/><rect x="914.38" y="36.58" width="18.29" height="18.29" fill="#faf8f5"/><path d="M 914.38 36.58 A 18.29 18.29 0 0 1  932.67 54.87 L 914.38 36.58 A 18.29 18.29 0 0 0 932.67 54.87" fill="#f6c5c1"/><rect x="932.66" y="36.58" width="18.29" height="18.29" fill="#f6cac5"/><polygon points="950.9499999999999,36.58 950.9499999999999,54.87 932.66,54.87" fill="#f6c5c1"/><rect x="914.38" y="54.86" width="18.29" height="18.29" fill="#f7ccc7"/><polygon points="914.38,54.86 932.67,54.86 914.38,73.15" fill="#edf7fa"/><rect x="932.66" y="54.86" width="18.29" height="18.29" fill="#f9f1f0"/><path d="M 932.66 54.86 A 18.29 18.29 0 0 1  950.9499999999999 73.15 L 932.66 54.86 A 18.29 18.29 0 0 0 950.9499999999999 73.15" fill="#aceaf9"/><rect x="950.95" y="36.58" width="36.58" height="36.58" fill="#faf1e3"/><path d="M 950.95 36.58 A 36.58 36.58 0 0 1  987.5300000000001 73.16 L 950.95 36.58 A 36.58 36.58 0 0 0 987.5300000000001 73.16" fill="#ef988e"/><rect x="987.5250000000001" y="36.575" width="36.575" height="36.575" fill="#fafafa"/><rect x="987.53" y="36.58" width="18.29" height="18.29" fill="#faf5f5"/><path d="M 987.53 54.87 A 18.29 18.29 0 0 0 1005.8199999999999 36.58 L 987.53 36.58" fill="#f1aba3"/><rect x="1005.81" y="36.58" width="18.29" height="18.29" fill="#d7f3fa"/><path d="M 1005.81 54.87 A 18.29 18.29 0 0 1  1024.1 36.58 L 1005.81 54.87 A 18.29 18.29 0 0 0 1024.1 36.58" fill="#afeaf9"/><rect x="987.53" y="54.86" width="18.29" height="18.29" fill="#e96153"/><path d="M 987.53 54.86 A 18.29 18.29 0 0 0 1005.8199999999999 73.15 L 1005.8199999999999 54.86" fill="#f9e2bd"/><rect x="1005.81" y="54.86" width="18.29" height="18.29" fill="#f6c7c2"/><polygon points="1005.81,54.86 1024.1,73.15 1005.81,73.15" fill="#f9d8a4"/><rect x="1024.1000000000001" y="36.575" width="36.575" height="36.575" fill="#fafafa"/><rect x="1024.1" y="36.58" width="18.29" height="18.29" fill="#f9ead1"/><path d="M 1024.1 54.87 A 18.29 18.29 0 0 1  1042.3899999999999 36.58 L 1024.1 54.87 A 18.29 18.29 0 0 0 1042.3899999999999 36.58" fill="#f6cdc8"/><rect x="1042.39" y="36.58" width="18.29" height="18.29" fill="#cef1fa"/><path d="M 1042.39 36.58 A 18.29 18.29 0 0 1  1060.68 54.87 L 1042.39 36.58 A 18.29 18.29 0 0 0 1060.68 54.87" fill="#b5ecf9"/><rect x="1024.1" y="54.86" width="18.29" height="18.29" fill="#ed877c"/><path d="M 1024.1 73.15 A 18.29 18.29 0 0 1  1042.3899999999999 54.86 L 1024.1 73.15 A 18.29 18.29 0 0 0 1042.3899999999999 54.86" fill="#f9dcae"/><rect x="1042.39" y="54.86" width="18.29" height="18.29" fill="#f9d59c"/><path d="M 1042.39 73.15 A 18.29 18.29 0 0 1  1060.68 54.86 L 1042.39 73.15 A 18.29 18.29 0 0 0 1060.68 54.86" fill="#ec796e"/><rect x="1060.6750000000002" y="36.575" width="36.575" height="36.575" fill="#fafafa"/><rect x="1060.68" y="36.58" width="18.29" height="18.29" fill="#f3a8a0"/><path d="M 1060.68 36.58 A 18.29 18.29 0 0 1  1078.97 54.87 L 1060.68 36.58 A 18.29 18.29 0 0 0 1078.97 54.87" fill="#f9e7ca"/><rect x="1078.96" y="36.58" width="18.29" height="18.29" fill="#f8ce8b"/><polygon points="1078.96,36.58 1097.25,36.58 1097.25,54.87" fill="#ee8f86"/><rect x="1060.68" y="54.86" width="18.29" height="18.29" fill="#a6e9f9"/><path d="M 1060.68 54.86 A 18.29 18.29 0 0 1 1078.97 73.15 L 1060.68 73.15" fill="#daf3fa"/><rect x="1078.96" y="54.86" width="18.29" height="18.29" fill="#ec7569"/><polygon points="1097.25,54.86 1097.25,73.15 1078.96,73.15" fill="#f1a59e"/><rect x="1097.25" y="36.58" width="36.58" height="36.58" fill="#f5bbb6"/><path d="M 1097.25 73.16 A 36.58 36.58 0 0 1  1133.83 36.58 L 1097.25 73.16 A 36.58 36.58 0 0 0 1133.83 36.58" fill="#f9d69f"/><rect x="1133.83" y="36.58" width="36.58" height="36.58" fill="#ef9990"/><polygon points="1133.83,36.58 1170.4099999999999,73.16 1133.83,73.16" fill="#f7f9fa"/><rect x="1170.4" y="36.575" width="36.575" height="36.575" fill="#fafafa"/><rect x="1170.4" y="36.58" width="18.29" height="18.29" fill="#b5ecf9"/><polygon points="1170.4,36.58 1188.69,54.87 1170.4,54.87" fill="#f1978d"/><rect x="1188.69" y="36.58" width="18.29" height="18.29" fill="#e9f6fa"/><path d="M 1188.69 36.58 A 18.29 18.29 0 0 1  1206.98 54.87 L 1188.69 36.58 A 18.29 18.29 0 0 0 1206.98 54.87" fill="#d5f2fa"/><rect x="1170.4" y="54.86" width="18.29" height="18.29" fill="#f3b8b2"/><path d="M 1170.4 73.15 A 18.29 18.29 0 0 1  1188.69 54.86 L 1170.4 73.15 A 18.29 18.29 0 0 0 1188.69 54.86" fill="#f3aca4"/><rect x="1188.69" y="54.86" width="18.29" height="18.29" fill="#a0e7f9"/><polygon points="1188.69,54.86 1206.98,54.86 1188.69,73.15" fill="#f9edec"/><rect x="1206.98" y="36.58" width="36.58" height="36.58" fill="#f8dedb"/><polygon points="1206.98,36.58 1243.56,73.16 1206.98,73.16" fill="#ebf7fa"/><rect x="1243.55" y="36.58" width="36.58" height="36.58" fill="#f7d6d2"/><polygon points="1243.55,36.58 1280.1299999999999,36.58 1280.1299999999999,73.16" fill="#f9ead1"/><rect x="1280.125" y="36.575" width="36.575" height="36.575" fill="#fafafa"/><rect x="1280.13" y="36.58" width="18.29" height="18.29" fill="#dbf3fa"/><path d="M 1280.13 36.58 A 18.29 18.29 0 0 0 1298.42 54.87 L 1298.42 36.58" fill="#faf0e0"/><rect x="1298.41" y="36.58" width="18.29" height="18.29" fill="#f9d7a2"/><path d="M 1298.41 36.58 A 18.29 18.29 0 0 1  1316.7 54.87 L 1298.41 36.58 A 18.29 18.29 0 0 0 1316.7 54.87" fill="#f9e3c0"/><rect x="1280.13" y="54.86" width="18.29" height="18.29" fill="#ef978e"/><path d="M 1280.13 54.86 A 18.29 18.29 0 0 1  1298.42 73.15 L 1280.13 54.86 A 18.29 18.29 0 0 0 1298.42 73.15" fill="#f8e1de"/><rect x="1298.41" y="54.86" width="18.29" height="18.29" fill="#faf8f6"/><polygon points="1298.41,54.86 1316.7,73.15 1298.41,73.15" fill="#f7dfdd"/><rect x="1316.7" y="36.575" width="36.575" height="36.575" fill="#fafafa"/><rect x="1316.7" y="36.58" width="18.29" height="18.29" fill="#dbf3fa"/><path d="M 1316.7 54.87 A 18.29 18.29 0 0 1  1334.99 36.58 L 1334.99 54.87" fill="#f9dfb6"/><rect x="1334.99" y="36.58" width="18.29" height="18.29" fill="#faf5f4"/><polygon points="1334.99,36.58 1353.28,54.87 1334.99,54.87" fill="#f8e1df"/><rect x="1316.7" y="54.86" width="18.29" height="18.29" fill="#d5f2fa"/><path d="M 1316.7 73.15 A 18.29 18.29 0 0 1  1334.99 54.86 L 1316.7 73.15 A 18.29 18.29 0 0 0 1334.99 54.86" fill="#f8c97e"/><rect x="1334.99" y="54.86" width="18.29" height="18.29" fill="#f7ccc8"/><path d="M 1334.99 73.15 A 18.29 18.29 0 0 1  1353.28 54.86 L 1353.28 73.15" fill="#faf7f6"/><rect x="1353.28" y="36.58" width="36.58" height="36.58" fill="#f8cf8e"/><polygon points="1353.28,36.58 1389.86,36.58 1353.28,73.16" fill="#f4b7b0"/><rect x="1389.85" y="36.58" width="36.58" height="36.58" fill="#f7ceca"/><path d="M 1389.85 73.16 A 36.58 36.58 0 0 1  1426.4299999999998 36.58 L 1426.4299999999998 73.16" fill="#f6d2ce"/><rect x="1426.43" y="36.58" width="36.58" height="36.58" fill="#faf0e1"/><path d="M 1426.43 36.58 A 36.58 36.58 0 0 1  1463.01 73.16 L 1426.43 36.58 A 36.58 36.58 0 0 0 1463.01 73.16" fill="#f8c573"/><rect x="0" y="73.15" width="36.575" height="36.575" fill="#fafafa"/><rect x="0" y="73.15" width="18.29" height="18.29" fill="#f8e2e0"/><path d="M 0 73.15 A 18.29 18.29 0 0 0 18.29 91.44 L 18.29 73.15" fill="#b8ecf9"/><rect x="18.29" y="73.15" width="18.29" height="18.29" fill="#ec7569"/><path d="M 18.29 91.44 A 18.29 18.29 0 0 1  36.58 73.15 L 18.29 91.44 A 18.29 18.29 0 0 0 36.58 73.15" fill="#f5c9c4"/><rect x="0" y="91.44" width="18.29" height="18.29" fill="#f8e8e6"/><path d="M 0 91.44 A 18.29 18.29 0 0 1  18.29 109.72999999999999 L 0 91.44 A 18.29 18.29 0 0 0 18.29 109.72999999999999" fill="#f6bfba"/><rect x="18.29" y="91.44" width="18.29" height="18.29" fill="#f9ebea"/><polygon points="18.29,91.44 36.58,109.72999999999999 18.29,109.72999999999999" fill="#eff8fa"/><rect x="36.58" y="73.15" width="36.58" height="36.58" fill="#f3b6b0"/><polygon points="36.58,73.15 73.16,109.73 36.58,109.73" fill="#f2f8fa"/><rect x="73.15" y="73.15" width="36.58" height="36.58" fill="#f8ebe9"/><path d="M 73.15 109.73 A 36.58 36.58 0 0 1  109.73 73.15 L 73.15 109.73 A 36.58 36.58 0 0 0 109.73 73.15" fill="#f9e2bc"/><rect x="109.73" y="73.15" width="36.58" height="36.58" fill="#faf4ea"/><path d="M 109.73 109.73 A 36.58 36.58 0 0 1  146.31 73.15 L 109.73 109.73 A 36.58 36.58 0 0 0 146.31 73.15" fill="#ea6457"/><rect x="146.3" y="73.15" width="36.58" height="36.58" fill="#f3ada5"/><path d="M 146.3 73.15 A 36.58 36.58 0 0 1  182.88 109.73 L 146.3 73.15 A 36.58 36.58 0 0 0 182.88 109.73" fill="#f7d9d6"/><rect x="182.88" y="73.15" width="36.58" height="36.58" fill="#f6c2bd"/><path d="M 182.88 73.15 A 36.58 36.58 0 0 1  219.45999999999998 109.73 L 182.88 73.15 A 36.58 36.58 0 0 0 219.45999999999998 109.73" fill="#f9eeed"/><rect x="219.45000000000002" y="73.15" width="36.575" height="36.575" fill="#fafafa"/><rect x="219.45" y="73.15" width="18.29" height="18.29" fill="#f8e2df"/><polygon points="219.45,73.15 237.73999999999998,73.15 237.73999999999998,91.44" fill="#b8ecf9"/><rect x="237.74" y="73.15" width="18.29" height="18.29" fill="#f1998f"/><polygon points="256.03000000000003,73.15 256.03000000000003,91.44 237.74,91.44" fill="#faf4eb"/><rect x="219.45" y="91.44" width="18.29" height="18.29" fill="#f8e0dd"/><path d="M 219.45 91.44 A 18.29 18.29 0 0 0 237.73999999999998 109.72999999999999 L 237.73999999999998 91.44" fill="#e85849"/><rect x="237.74" y="91.44" width="18.29" height="18.29" fill="#f6c9c4"/><polygon points="256.03000000000003,91.44 256.03000000000003,109.72999999999999 237.74,109.72999999999999" fill="#d7f3fa"/><rect x="256.03" y="73.15" width="36.58" height="36.58" fill="#f9f3f2"/><path d="M 256.03 109.73 A 36.58 36.58 0 0 0 292.60999999999996 73.15 L 256.03 73.15" fill="#f8c77a"/><rect x="292.6" y="73.15" width="36.575" height="36.575" fill="#fafafa"/><rect x="292.6" y="73.15" width="18.29" height="18.29" fill="#f8cd88"/><path d="M 292.6 91.44 A 18.29 18.29 0 0 1  310.89000000000004 73.15 L 292.6 91.44 A 18.29 18.29 0 0 0 310.89000000000004 73.15" fill="#e96153"/><rect x="310.89" y="73.15" width="18.29" height="18.29" fill="#d4f2fa"/><polygon points="310.89,73.15 329.18,73.15 329.18,91.44" fill="#f9d8a3"/><rect x="292.6" y="91.44" width="18.29" height="18.29" fill="#ed867c"/><path d="M 292.6 91.44 A 18.29 18.29 0 0 1  310.89000000000004 109.72999999999999 L 292.6 91.44 A 18.29 18.29 0 0 0 310.89000000000004 109.72999999999999" fill="#f4bbb5"/><rect x="310.89" y="91.44" width="18.29" height="18.29" fill="#f9e8cc"/><path d="M 310.89 109.72999999999999 A 18.29 18.29 0 0 0 329.18 91.44 L 310.89 91.44" fill="#faf7f4"/><rect x="329.175" y="73.15" width="36.575" height="36.575" fill="#fafafa"/><rect x="329.18" y="73.15" width="18.29" height="18.29" fill="#f2b5af"/><path d="M 329.18 73.15 A 18.29 18.29 0 0 1  347.47 91.44 L 329.18 73.15 A 18.29 18.29 0 0 0 347.47 91.44" fill="#f9e3be"/><rect x="347.46" y="73.15" width="18.29" height="18.29" fill="#f3b6af"/><path d="M 347.46 73.15 A 18.29 18.29 0 0 1 365.75 91.44 L 347.46 91.44" fill="#f6d2ce"/><rect x="329.18" y="91.44" width="18.29" height="18.29" fill="#f7d8d5"/><path d="M 329.18 109.72999999999999 A 18.29 18.29 0 0 1  347.47 91.44 L 329.18 109.72999999999999 A 18.29 18.29 0 0 0 347.47 91.44" fill="#f9e9e7"/><rect x="347.46" y="91.44" width="18.29" height="18.29" fill="#f0a199"/><polygon points="365.75,91.44 365.75,109.72999999999999 347.46,109.72999999999999" fill="#ebf7fa"/><rect x="365.75" y="73.15" width="36.58" height="36.58" fill="#bdedf9"/><polygon points="402.33,73.15 402.33,109.73 365.75,109.73" fill="#ed8277"/><rect x="402.32500000000005" y="73.15" width="36.575" height="36.575" fill="#fafafa"/><rect x="402.33" y="73.15" width="18.29" height="18.29" fill="#f9ebd5"/><path d="M 402.33 73.15 A 18.29 18.29 0 0 1  420.62 91.44 L 402.33 73.15 A 18.29 18.29 0 0 0 420.62 91.44" fill="#f3b6b0"/><rect x="420.61" y="73.15" width="18.29" height="18.29" fill="#eff8fa"/><path d="M 420.61 91.44 A 18.29 18.29 0 0 1  438.90000000000003 73.15 L 438.90000000000003 91.44" fill="#f5bfb9"/><rect x="402.33" y="91.44" width="18.29" height="18.29" fill="#f6d1cd"/><path d="M 402.33 91.44 A 18.29 18.29 0 0 0 420.62 109.72999999999999 L 420.62 91.44" fill="#d2f2fa"/><rect x="420.61" y="91.44" width="18.29" height="18.29" fill="#e74e3f"/><polygon points="438.90000000000003,91.44 438.90000000000003,109.72999999999999 420.61,109.72999999999999" fill="#f9e8e7"/><rect x="438.9" y="73.15" width="36.58" height="36.58" fill="#d7f3fa"/><path d="M 438.9 73.15 A 36.58 36.58 0 0 1 475.47999999999996 109.73 L 438.9 109.73" fill="#ed8277"/><rect x="475.48" y="73.15" width="36.58" height="36.58" fill="#ef9288"/><path d="M 475.48 73.15 A 36.58 36.58 0 0 1  512.0600000000001 109.73 L 475.48 73.15 A 36.58 36.58 0 0 0 512.0600000000001 109.73" fill="#e4f5fa"/><rect x="512.05" y="73.15" width="36.58" height="36.58" fill="#f8e8e6"/><polygon points="548.63,73.15 548.63,109.73 512.05,109.73" fill="#f7d2cf"/><rect x="548.625" y="73.15" width="36.575" height="36.575" fill="#fafafa"/><rect x="548.63" y="73.15" width="18.29" height="18.29" fill="#f9ebe9"/><path d="M 548.63 73.15 A 18.29 18.29 0 0 1  566.92 91.44 L 548.63 73.15 A 18.29 18.29 0 0 0 566.92 91.44" fill="#ed8277"/><rect x="566.91" y="73.15" width="18.29" height="18.29" fill="#d5f2fa"/><path d="M 566.91 91.44 A 18.29 18.29 0 0 1  585.1999999999999 73.15 L 566.91 91.44 A 18.29 18.29 0 0 0 585.1999999999999 73.15" fill="#f5b9b3"/><rect x="548.63" y="91.44" width="18.29" height="18.29" fill="#f6cfcb"/><polygon points="548.63,91.44 566.92,91.44 566.92,109.72999999999999" fill="#ea6c5f"/><rect x="566.91" y="91.44" width="18.29" height="18.29" fill="#f8dedb"/><path d="M 566.91 91.44 A 18.29 18.29 0 0 1  585.1999999999999 109.72999999999999 L 566.91 91.44 A 18.29 18.29 0 0 0 585.1999999999999 109.72999999999999" fill="#f8c778"/><rect x="585.2" y="73.15" width="36.58" height="36.58" fill="#faf9f9"/><path d="M 585.2 73.15 A 36.58 36.58 0 0 1  621.7800000000001 109.73 L 585.2 73.15 A 36.58 36.58 0 0 0 621.7800000000001 109.73" fill="#f6cbc7"/><rect x="621.7750000000001" y="73.15" width="36.575" height="36.575" fill="#fafafa"/><rect x="621.78" y="73.15" width="18.29" height="18.29" fill="#faf3e9"/><polygon points="621.78,73.15 640.0699999999999,73.15 621.78,91.44" fill="#f6bfba"/><rect x="640.06" y="73.15" width="18.29" height="18.29" fill="#f9ebe9"/><path d="M 640.06 73.15 A 18.29 18.29 0 0 0 658.3499999999999 91.44 L 658.3499999999999 73.15" fill="#ed877c"/><rect x="621.78" y="91.44" width="18.29" height="18.29" fill="#f9f4f4"/><path d="M 621.78 91.44 A 18.29 18.29 0 0 1  640.0699999999999 109.72999999999999 L 621.78 91.44 A 18.29 18.29 0 0 0 640.0699999999999 109.72999999999999" fill="#e6f6fa"/><rect x="640.06" y="91.44" width="18.29" height="18.29" fill="#faf3e7"/><path d="M 640.06 109.72999999999999 A 18.29 18.29 0 0 1  658.3499999999999 91.44 L 640.06 109.72999999999999 A 18.29 18.29 0 0 0 658.3499999999999 91.44" fill="#f9edec"/><rect x="658.35" y="73.15" width="36.575" height="36.575" fill="#fafafa"/><rect x="658.35" y="73.15" width="18.29" height="18.29" fill="#bdedf9"/><path d="M 658.35 91.44 A 18.29 18.29 0 0 1  676.64 73.15 L 658.35 91.44 A 18.29 18.29 0 0 0 676.64 73.15" fill="#c6eff9"/><rect x="676.64" y="73.15" width="18.29" height="18.29" fill="#f7e1de"/><polygon points="676.64,73.15 694.93,91.44 676.64,91.44" fill="#cdf1fa"/><rect x="658.35" y="91.44" width="18.29" height="18.29" fill="#faf8f8"/><polygon points="676.64,91.44 676.64,109.72999999999999 658.35,109.72999999999999" fill="#d7f3fa"/><rect x="676.64" y="91.44" width="18.29" height="18.29" fill="#cff1fa"/><polygon points="676.64,91.44 694.93,91.44 694.93,109.72999999999999" fill="#bfeef9"/><rect x="694.93" y="73.15" width="36.58" height="36.58" fill="#f8c778"/><path d="M 694.93 73.15 A 36.58 36.58 0 0 1 731.51 109.73 L 694.93 109.73" fill="#f9ecd7"/><rect x="731.5" y="73.15" width="36.58" height="36.58" fill="#aceaf9"/><path d="M 731.5 73.15 A 36.58 36.58 0 0 0 768.08 109.73 L 768.08 73.15" fill="#faf4ea"/><rect x="768.075" y="73.15" width="36.575" height="36.575" fill="#fafafa"/><rect x="768.08" y="73.15" width="18.29" height="18.29" fill="#f9e5c6"/><path d="M 768.08 73.15 A 18.29 18.29 0 0 1  786.37 91.44 L 768.08 73.15 A 18.29 18.29 0 0 0 786.37 91.44" fill="#f6c9c5"/><rect x="786.36" y="73.15" width="18.29" height="18.29" fill="#bdedf9"/><polygon points="804.65,73.15 804.65,91.44 786.36,91.44" fill="#f2f8fa"/><rect x="768.08" y="91.44" width="18.29" height="18.29" fill="#f7d4d1"/><polygon points="768.08,91.44 786.37,109.72999999999999 768.08,109.72999999999999" fill="#f1a69e"/><rect x="786.36" y="91.44" width="18.29" height="18.29" fill="#f5bdb7"/><path d="M 786.36 109.72999999999999 A 18.29 18.29 0 0 0 804.65 91.44 L 786.36 91.44" fill="#faf7f7"/><rect x="804.6500000000001" y="73.15" width="36.575" height="36.575" fill="#fafafa"/><rect x="804.65" y="73.15" width="18.29" height="18.29" fill="#b0ebf9"/><polygon points="822.9399999999999,73.15 822.9399999999999,91.44 804.65,91.44" fill="#f9e3c0"/><rect x="822.94" y="73.15" width="18.29" height="18.29" fill="#f7f9fa"/><path d="M 822.94 73.15 A 18.29 18.29 0 0 1  841.23 91.44 L 822.94 73.15 A 18.29 18.29 0 0 0 841.23 91.44" fill="#faefdf"/><rect x="804.65" y="91.44" width="18.29" height="18.29" fill="#f9e1bb"/><polygon points="804.65,91.44 822.9399999999999,109.72999999999999 804.65,109.72999999999999" fill="#c3eff9"/><rect x="822.94" y="91.44" width="18.29" height="18.29" fill="#faf3e9"/><path d="M 822.94 91.44 A 18.29 18.29 0 0 1  841.23 109.72999999999999 L 822.94 91.44 A 18.29 18.29 0 0 0 841.23 109.72999999999999" fill="#c2eef9"/><rect x="841.225" y="73.15" width="36.575" height="36.575" fill="#fafafa"/><rect x="841.23" y="73.15" width="18.29" height="18.29" fill="#f7d4d0"/><polygon points="841.23,73.15 859.52,73.15 841.23,91.44" fill="#b6ecf9"/><rect x="859.51" y="73.15" width="18.29" height="18.29" fill="#ef988f"/><path d="M 859.51 91.44 A 18.29 18.29 0 0 1  877.8 73.15 L 859.51 91.44 A 18.29 18.29 0 0 0 877.8 73.15" fill="#f5c8c4"/><rect x="841.23" y="91.44" width="18.29" height="18.29" fill="#d2f2fa"/><path d="M 841.23 109.72999999999999 A 18.29 18.29 0 0 0 859.52 91.44 L 841.23 91.44" fill="#ec786d"/><rect x="859.51" y="91.44" width="18.29" height="18.29" fill="#faeedc"/><path d="M 859.51 109.72999999999999 A 18.29 18.29 0 0 1  877.8 91.44 L 859.51 109.72999999999999 A 18.29 18.29 0 0 0 877.8 91.44" fill="#f2a49b"/><rect x="877.8000000000001" y="73.15" width="36.575" height="36.575" fill="#fafafa"/><rect x="877.8" y="73.15" width="18.29" height="18.29" fill="#eaf7fa"/><path d="M 877.8 91.44 A 18.29 18.29 0 0 1  896.0899999999999 73.15 L 877.8 91.44 A 18.29 18.29 0 0 0 896.0899999999999 73.15" fill="#cff1fa"/><rect x="896.09" y="73.15" width="18.29" height="18.29" fill="#f9e0b7"/><path d="M 896.09 91.44 A 18.29 18.29 0 0 1  914.38 73.15 L 896.09 91.44 A 18.29 18.29 0 0 0 914.38 73.15" fill="#f9f2f1"/><rect x="877.8" y="91.44" width="18.29" height="18.29" fill="#f6bfba"/><path d="M 877.8 109.72999999999999 A 18.29 18.29 0 0 1  896.0899999999999 91.44 L 877.8 109.72999999999999 A 18.29 18.29 0 0 0 896.0899999999999 91.44" fill="#b0eaf9"/><rect x="896.09" y="91.44" width="18.29" height="18.29" fill="#f6ceca"/><path d="M 896.09 91.44 A 18.29 18.29 0 0 1  914.38 109.72999999999999 L 896.09 91.44 A 18.29 18.29 0 0 0 914.38 109.72999999999999" fill="#f8e3e1"/><rect x="914.3750000000001" y="73.15" width="36.575" height="36.575" fill="#fafafa"/><rect x="914.38" y="73.15" width="18.29" height="18.29" fill="#f1aba4"/><path d="M 914.38 91.44 A 18.29 18.29 0 0 1  932.67 73.15 L 914.38 91.44 A 18.29 18.29 0 0 0 932.67 73.15" fill="#f7ccc8"/><rect x="932.66" y="73.15" width="18.29" height="18.29" fill="#b1ebf9"/><polygon points="950.9499999999999,73.15 950.9499999999999,91.44 932.66,91.44" fill="#e3f5fa"/><rect x="914.38" y="91.44" width="18.29" height="18.29" fill="#f5bcb7"/><path d="M 914.38 109.72999999999999 A 18.29 18.29 0 0 1  932.67 91.44 L 914.38 109.72999999999999 A 18.29 18.29 0 0 0 932.67 91.44" fill="#f4bfba"/><rect x="932.66" y="91.44" width="18.29" height="18.29" fill="#f6c4bf"/><path d="M 932.66 91.44 A 18.29 18.29 0 0 0 950.9499999999999 109.72999999999999 L 950.9499999999999 91.44" fill="#f7dad7"/><rect x="950.95" y="73.15" width="36.58" height="36.58" fill="#c2eef9"/><path d="M 950.95 109.73 A 36.58 36.58 0 0 1  987.5300000000001 73.15 L 987.5300000000001 109.73" fill="#f4b5ae"/><rect x="987.53" y="73.15" width="36.58" height="36.58" fill="#f7d4d1"/><path d="M 987.53 73.15 A 36.58 36.58 0 0 1 1024.11 109.73 L 987.53 109.73" fill="#adeaf9"/><rect x="1024.1" y="73.15" width="36.58" height="36.58" fill="#f9dfb5"/><path d="M 1024.1 109.73 A 36.58 36.58 0 0 1  1060.6799999999998 73.15 L 1024.1 109.73 A 36.58 36.58 0 0 0 1060.6799999999998 73.15" fill="#f9edec"/><rect x="1060.6750000000002" y="73.15" width="36.575" height="36.575" fill="#fafafa"/><rect x="1060.68" y="73.15" width="18.29" height="18.29" fill="#fafafa"/><path d="M 1060.68 91.44 A 18.29 18.29 0 0 0 1078.97 73.15 L 1060.68 73.15" fill="#f9daa9"/><rect x="1078.96" y="73.15" width="18.29" height="18.29" fill="#f8dedb"/><path d="M 1078.96 91.44 A 18.29 18.29 0 0 1  1097.25 73.15 L 1078.96 91.44 A 18.29 18.29 0 0 0 1097.25 73.15" fill="#faf4eb"/><rect x="1060.68" y="91.44" width="18.29" height="18.29" fill="#f9dbaa"/><path d="M 1060.68 109.72999999999999 A 18.29 18.29 0 0 1  1078.97 91.44 L 1060.68 109.72999999999999 A 18.29 18.29 0 0 0 1078.97 91.44" fill="#f9d59c"/><rect x="1078.96" y="91.44" width="18.29" height="18.29" fill="#f8c572"/><path d="M 1078.96 109.72999999999999 A 18.29 18.29 0 0 0 1097.25 91.44 L 1078.96 91.44" fill="#f8e7e5"/><rect x="1097.25" y="73.15" width="36.575" height="36.575" fill="#fafafa"/><rect x="1097.25" y="73.15" width="18.29" height="18.29" fill="#f9d49a"/><path d="M 1097.25 73.15 A 18.29 18.29 0 0 1  1115.54 91.44 L 1097.25 73.15 A 18.29 18.29 0 0 0 1115.54 91.44" fill="#d3f2fa"/><rect x="1115.54" y="73.15" width="18.29" height="18.29" fill="#f9dfb6"/><path d="M 1115.54 91.44 A 18.29 18.29 0 0 1  1133.83 73.15 L 1115.54 91.44 A 18.29 18.29 0 0 0 1133.83 73.15" fill="#f6ccc7"/><rect x="1097.25" y="91.44" width="18.29" height="18.29" fill="#bbedf9"/><path d="M 1097.25 109.72999999999999 A 18.29 18.29 0 0 1  1115.54 91.44 L 1097.25 109.72999999999999 A 18.29 18.29 0 0 0 1115.54 91.44" fill="#f5b8b2"/><rect x="1115.54" y="91.44" width="18.29" height="18.29" fill="#f6c8c4"/><path d="M 1115.54 109.72999999999999 A 18.29 18.29 0 0 1  1133.83 91.44 L 1133.83 109.72999999999999" fill="#f2a49c"/><rect x="1133.825" y="73.15" width="36.575" height="36.575" fill="#fafafa"/><rect x="1133.83" y="73.15" width="18.29" height="18.29" fill="#f8ca81"/><polygon points="1152.12,73.15 1152.12,91.44 1133.83,91.44" fill="#f5c2bd"/><rect x="1152.11" y="73.15" width="18.29" height="18.29" fill="#def4fa"/><polygon points="1152.11,73.15 1170.3999999999999,91.44 1152.11,91.44" fill="#e74f40"/><rect x="1133.83" y="91.44" width="18.29" height="18.29" fill="#f8dcd9"/><path d="M 1133.83 91.44 A 18.29 18.29 0 0 1  1152.12 109.72999999999999 L 1133.83 91.44 A 18.29 18.29 0 0 0 1152.12 109.72999999999999" fill="#faf8f4"/><rect x="1152.11" y="91.44" width="18.29" height="18.29" fill="#c4eff9"/><path d="M 1152.11 91.44 A 18.29 18.29 0 0 1  1170.3999999999999 109.72999999999999 L 1152.11 91.44 A 18.29 18.29 0 0 0 1170.3999999999999 109.72999999999999" fill="#f8dfdc"/><rect x="1170.4" y="73.15" width="36.58" height="36.58" fill="#f3aba3"/><path d="M 1170.4 109.73 A 36.58 36.58 0 0 1  1206.98 73.15 L 1170.4 109.73 A 36.58 36.58 0 0 0 1206.98 73.15" fill="#ec7e73"/><rect x="1206.98" y="73.15" width="36.58" height="36.58" fill="#f9d7a2"/><polygon points="1206.98,73.15 1243.56,73.15 1243.56,109.73" fill="#f7cfcb"/><rect x="1243.55" y="73.15" width="36.58" height="36.58" fill="#f5bfb9"/><path d="M 1243.55 109.73 A 36.58 36.58 0 0 1  1280.1299999999999 73.15 L 1243.55 109.73 A 36.58 36.58 0 0 0 1280.1299999999999 73.15" fill="#f9d398"/><rect x="1280.125" y="73.15" width="36.575" height="36.575" fill="#fafafa"/><rect x="1280.13" y="73.15" width="18.29" height="18.29" fill="#eb6e61"/><path d="M 1280.13 91.44 A 18.29 18.29 0 0 1  1298.42 73.15 L 1280.13 91.44 A 18.29 18.29 0 0 0 1298.42 73.15" fill="#f5cfcb"/><rect x="1298.41" y="73.15" width="18.29" height="18.29" fill="#f9e4c2"/><polygon points="1298.41,73.15 1316.7,73.15 1316.7,91.44" fill="#ef9188"/><rect x="1280.13" y="91.44" width="18.29" height="18.29" fill="#f5bdb7"/><polygon points="1280.13,91.44 1298.42,91.44 1298.42,109.72999999999999" fill="#f6ccc7"/><rect x="1298.41" y="91.44" width="18.29" height="18.29" fill="#f0a098"/><polygon points="1298.41,91.44 1316.7,91.44 1298.41,109.72999999999999" fill="#f7d5d1"/><rect x="1316.7" y="73.15" width="36.58" height="36.58" fill="#f5bcb6"/><polygon points="1316.7,73.15 1353.28,73.15 1316.7,109.73" fill="#e95c4e"/><rect x="1353.28" y="73.15" width="36.58" height="36.58" fill="#faf6f1"/><path d="M 1353.28 109.73 A 36.58 36.58 0 0 1  1389.86 73.15 L 1353.28 109.73 A 36.58 36.58 0 0 0 1389.86 73.15" fill="#f9e1bb"/><rect x="1389.8500000000001" y="73.15" width="36.575" height="36.575" fill="#fafafa"/><rect x="1389.85" y="73.15" width="18.29" height="18.29" fill="#f8e5e3"/><path d="M 1389.85 73.15 A 18.29 18.29 0 0 1  1408.1399999999999 91.44 L 1389.85 73.15 A 18.29 18.29 0 0 0 1408.1399999999999 91.44" fill="#f3bdb8"/><rect x="1408.14" y="73.15" width="18.29" height="18.29" fill="#f2b0a9"/><path d="M 1408.14 91.44 A 18.29 18.29 0 0 1  1426.43 73.15 L 1408.14 91.44 A 18.29 18.29 0 0 0 1426.43 73.15" fill="#f5cdc9"/><rect x="1389.85" y="91.44" width="18.29" height="18.29" fill="#ec7e72"/><path d="M 1389.85 109.72999999999999 A 18.29 18.29 0 0 1  1408.1399999999999 91.44 L 1389.85 109.72999999999999 A 18.29 18.29 0 0 0 1408.1399999999999 91.44" fill="#f9deb3"/><rect x="1408.14" y="91.44" width="18.29" height="18.29" fill="#f9e0b7"/><path d="M 1408.14 91.44 A 18.29 18.29 0 0 1  1426.43 109.72999999999999 L 1408.14 91.44 A 18.29 18.29 0 0 0 1426.43 109.72999999999999" fill="#faf9f7"/><rect x="1426.43" y="73.15" width="36.58" height="36.58" fill="#e5f6fa"/><polygon points="1426.43,73.15 1463.01,73.15 1463.01,109.73" fill="#f7d3d0"/><rect x="0" y="109.73" width="36.58" height="36.58" fill="#f9e5c6"/><path d="M 0 109.73 A 36.58 36.58 0 0 1  36.58 146.31 L 0 109.73 A 36.58 36.58 0 0 0 36.58 146.31" fill="#f4bbb5"/><rect x="36.575" y="109.72500000000001" width="36.575" height="36.575" fill="#fafafa"/><rect x="36.58" y="109.73" width="18.29" height="18.29" fill="#f8e8e6"/><path d="M 36.58 128.02 A 18.29 18.29 0 0 1  54.87 109.73 L 36.58 128.02 A 18.29 18.29 0 0 0 54.87 109.73" fill="#f9ead2"/><rect x="54.86" y="109.73" width="18.29" height="18.29" fill="#f8e4e2"/><path d="M 54.86 109.73 A 18.29 18.29 0 0 1  73.15 128.02 L 54.86 109.73 A 18.29 18.29 0 0 0 73.15 128.02" fill="#faf9f9"/><rect x="36.58" y="128.01" width="18.29" height="18.29" fill="#b0ebf9"/><path d="M 36.58 128.01 A 18.29 18.29 0 0 1  54.87 146.29999999999998 L 36.58 128.01 A 18.29 18.29 0 0 0 54.87 146.29999999999998" fill="#e95b4c"/><rect x="54.86" y="128.01" width="18.29" height="18.29" fill="#f9e4c1"/><polygon points="54.86,128.01 73.15,146.29999999999998 54.86,146.29999999999998" fill="#faf6f0"/><rect x="73.15" y="109.72500000000001" width="36.575" height="36.575" fill="#fafafa"/><rect x="73.15" y="109.73" width="18.29" height="18.29" fill="#f9e7cb"/><path d="M 73.15 109.73 A 18.29 18.29 0 0 1  91.44 128.02 L 73.15 109.73 A 18.29 18.29 0 0 0 91.44 128.02" fill="#f1a49c"/><rect x="91.44" y="109.73" width="18.29" height="18.29" fill="#f6cbc7"/><path d="M 91.44 128.02 A 18.29 18.29 0 0 1  109.72999999999999 109.73 L 91.44 128.02 A 18.29 18.29 0 0 0 109.72999999999999 109.73" fill="#adeaf9"/><rect x="73.15" y="128.01" width="18.29" height="18.29" fill="#f8ca7f"/><polygon points="73.15,128.01 91.44,146.29999999999998 73.15,146.29999999999998" fill="#f8cf8c"/><rect x="91.44" y="128.01" width="18.29" height="18.29" fill="#eaf7fa"/><path d="M 91.44 128.01 A 18.29 18.29 0 0 1  109.72999999999999 146.29999999999998 L 91.44 128.01 A 18.29 18.29 0 0 0 109.72999999999999 146.29999999999998" fill="#f29d93"/><rect x="109.73" y="109.73" width="36.58" height="36.58" fill="#ed857a"/><path d="M 109.73 146.31 A 36.58 36.58 0 0 1  146.31 109.73 L 109.73 146.31 A 36.58 36.58 0 0 0 146.31 109.73" fill="#f2b3ac"/><rect x="146.3" y="109.72500000000001" width="36.575" height="36.575" fill="#fafafa"/><rect x="146.3" y="109.73" width="18.29" height="18.29" fill="#f6d2ce"/><path d="M 146.3 128.02 A 18.29 18.29 0 0 1  164.59 109.73 L 164.59 128.02" fill="#f9e2bc"/><rect x="164.59" y="109.73" width="18.29" height="18.29" fill="#f2b1ab"/><polygon points="164.59,109.73 182.88,109.73 164.59,128.02" fill="#f7d7d3"/><rect x="146.3" y="128.01" width="18.29" height="18.29" fill="#f5c7c2"/><path d="M 146.3 128.01 A 18.29 18.29 0 0 0 164.59 146.29999999999998 L 164.59 128.01" fill="#f8dedb"/><rect x="164.59" y="128.01" width="18.29" height="18.29" fill="#f9e9ce"/><path d="M 164.59 128.01 A 18.29 18.29 0 0 1 182.88 146.29999999999998 L 164.59 146.29999999999998" fill="#f6d2ce"/><rect x="182.88" y="109.73" width="36.58" height="36.58" fill="#f3afa8"/><path d="M 182.88 146.31 A 36.58 36.58 0 0 0 219.45999999999998 109.73 L 182.88 109.73" fill="#f8e3e1"/><rect x="219.45000000000002" y="109.72500000000001" width="36.575" height="36.575" fill="#fafafa"/><rect x="219.45" y="109.73" width="18.29" height="18.29" fill="#f3a79f"/><polygon points="219.45,109.73 237.73999999999998,128.02 219.45,128.02" fill="#f5b7b1"/><rect x="237.74" y="109.73" width="18.29" height="18.29" fill="#f9efef"/><path d="M 237.74 128.02 A 18.29 18.29 0 0 1  256.03000000000003 109.73 L 256.03000000000003 128.02" fill="#f5c7c2"/><rect x="219.45" y="128.01" width="18.29" height="18.29" fill="#f3bab5"/><path d="M 219.45 146.29999999999998 A 18.29 18.29 0 0 1  237.73999999999998 128.01 L 219.45 146.29999999999998 A 18.29 18.29 0 0 0 237.73999999999998 128.01" fill="#f7ccc8"/><rect x="237.74" y="128.01" width="18.29" height="18.29" fill="#ee8a80"/><polygon points="237.74,128.01 256.03000000000003,146.29999999999998 237.74,146.29999999999998" fill="#ea685b"/><rect x="256.03" y="109.73" width="36.58" height="36.58" fill="#f7d3d0"/><polygon points="256.03,109.73 292.60999999999996,109.73 256.03,146.31" fill="#cdf1fa"/><rect x="292.6" y="109.72500000000001" width="36.575" height="36.575" fill="#fafafa"/><rect x="292.6" y="109.73" width="18.29" height="18.29" fill="#f1a8a0"/><path d="M 292.6 128.02 A 18.29 18.29 0 0 1  310.89000000000004 109.73 L 292.6 128.02 A 18.29 18.29 0 0 0 310.89000000000004 109.73" fill="#faf6f0"/><rect x="310.89" y="109.73" width="18.29" height="18.29" fill="#f8c472"/><path d="M 310.89 128.02 A 18.29 18.29 0 0 1  329.18 109.73 L 310.89 128.02 A 18.29 18.29 0 0 0 329.18 109.73" fill="#f8cc84"/><rect x="292.6" y="128.01" width="18.29" height="18.29" fill="#f7d4d0"/><path d="M 292.6 146.29999999999998 A 18.29 18.29 0 0 1  310.89000000000004 128.01 L 292.6 146.29999999999998 A 18.29 18.29 0 0 0 310.89000000000004 128.01" fill="#f29d94"/><rect x="310.89" y="128.01" width="18.29" height="18.29" fill="#f6c9c4"/><path d="M 310.89 128.01 A 18.29 18.29 0 0 1  329.18 146.29999999999998 L 310.89 128.01 A 18.29 18.29 0 0 0 329.18 146.29999999999998" fill="#f8e4e2"/><rect x="329.18" y="109.73" width="36.58" height="36.58" fill="#f7cfcb"/><polygon points="329.18,109.73 365.76,146.31 329.18,146.31" fill="#f5cbc7"/><rect x="365.75" y="109.72500000000001" width="36.575" height="36.575" fill="#fafafa"/><rect x="365.75" y="109.73" width="18.29" height="18.29" fill="#f09e96"/><path d="M 365.75 128.02 A 18.29 18.29 0 0 1  384.04 109.73 L 365.75 128.02 A 18.29 18.29 0 0 0 384.04 109.73" fill="#f8e2e0"/><rect x="384.04" y="109.73" width="18.29" height="18.29" fill="#faf7f7"/><path d="M 384.04 128.02 A 18.29 18.29 0 0 1  402.33000000000004 109.73 L 384.04 128.02 A 18.29 18.29 0 0 0 402.33000000000004 109.73" fill="#f8e2e0"/><rect x="365.75" y="128.01" width="18.29" height="18.29" fill="#f7ccc8"/><polygon points="365.75,128.01 384.04,146.29999999999998 365.75,146.29999999999998" fill="#afeaf9"/><rect x="384.04" y="128.01" width="18.29" height="18.29" fill="#f9e7e6"/><path d="M 384.04 128.01 A 18.29 18.29 0 0 1  402.33000000000004 146.29999999999998 L 384.04 128.01 A 18.29 18.29 0 0 0 402.33000000000004 146.29999999999998" fill="#faf9f8"/><rect x="402.33" y="109.73" width="36.58" height="36.58" fill="#e85141"/><polygon points="438.90999999999997,109.73 438.90999999999997,146.31 402.33,146.31" fill="#f9ddb0"/><rect x="438.9" y="109.73" width="36.58" height="36.58" fill="#ee8e84"/><path d="M 438.9 109.73 A 36.58 36.58 0 0 1 475.47999999999996 146.31 L 438.9 146.31" fill="#c6eff9"/><rect x="475.48" y="109.73" width="36.58" height="36.58" fill="#f9efee"/><polygon points="512.0600000000001,109.73 512.0600000000001,146.31 475.48,146.31" fill="#f6ccc8"/><rect x="512.0500000000001" y="109.72500000000001" width="36.575" height="36.575" fill="#fafafa"/><rect x="512.05" y="109.73" width="18.29" height="18.29" fill="#f8c87b"/><path d="M 512.05 109.73 A 18.29 18.29 0 0 1 530.3399999999999 128.02 L 512.05 128.02" fill="#f7dad7"/><rect x="530.34" y="109.73" width="18.29" height="18.29" fill="#f9efee"/><path d="M 530.34 109.73 A 18.29 18.29 0 0 1  548.63 128.02 L 530.34 109.73 A 18.29 18.29 0 0 0 548.63 128.02" fill="#faf6f6"/><rect x="512.05" y="128.01" width="18.29" height="18.29" fill="#f8e4e2"/><polygon points="512.05,128.01 530.3399999999999,128.01 512.05,146.29999999999998" fill="#f5b9b3"/><rect x="530.34" y="128.01" width="18.29" height="18.29" fill="#f3aba3"/><path d="M 530.34 128.01 A 18.29 18.29 0 0 1  548.63 146.29999999999998 L 530.34 128.01 A 18.29 18.29 0 0 0 548.63 146.29999999999998" fill="#f8e3e1"/><rect x="548.625" y="109.72500000000001" width="36.575" height="36.575" fill="#fafafa"/><rect x="548.63" y="109.73" width="18.29" height="18.29" fill="#f9f3f2"/><path d="M 548.63 128.02 A 18.29 18.29 0 0 1  566.92 109.73 L 566.92 128.02" fill="#f8e5e3"/><rect x="566.91" y="109.73" width="18.29" height="18.29" fill="#f9dbab"/><polygon points="566.91,109.73 585.1999999999999,109.73 566.91,128.02" fill="#f9d7a0"/><rect x="548.63" y="128.01" width="18.29" height="18.29" fill="#e95f51"/><path d="M 548.63 146.29999999999998 A 18.29 18.29 0 0 1  566.92 128.01 L 548.63 146.29999999999998 A 18.29 18.29 0 0 0 566.92 128.01" fill="#f8e5e3"/><rect x="566.91" y="128.01" width="18.29" height="18.29" fill="#f9f0ef"/><path d="M 566.91 128.01 A 18.29 18.29 0 0 1  585.1999999999999 146.29999999999998 L 566.91 128.01 A 18.29 18.29 0 0 0 585.1999999999999 146.29999999999998" fill="#c6eff9"/><rect x="585.2" y="109.72500000000001" width="36.575" height="36.575" fill="#fafafa"/><rect x="585.2" y="109.73" width="18.29" height="18.29" fill="#f5bcb6"/><path d="M 585.2 128.02 A 18.29 18.29 0 0 1  603.49 109.73 L 585.2 128.02 A 18.29 18.29 0 0 0 603.49 109.73" fill="#f0a098"/><rect x="603.49" y="109.73" width="18.29" height="18.29" fill="#bcedf9"/><polygon points="621.78,109.73 621.78,128.02 603.49,128.02" fill="#eb6d60"/><rect x="585.2" y="128.01" width="18.29" height="18.29" fill="#f6d2ce"/><path d="M 585.2 146.29999999999998 A 18.29 18.29 0 0 1  603.49 128.01 L 585.2 146.29999999999998 A 18.29 18.29 0 0 0 603.49 128.01" fill="#f5cec9"/><rect x="603.49" y="128.01" width="18.29" height="18.29" fill="#e5f6fa"/><polygon points="621.78,128.01 621.78,146.29999999999998 603.49,146.29999999999998" fill="#f9d69f"/><rect x="621.78" y="109.73" width="36.58" height="36.58" fill="#f8e4e2"/><path d="M 621.78 109.73 A 36.58 36.58 0 0 1  658.36 146.31 L 621.78 109.73 A 36.58 36.58 0 0 0 658.36 146.31" fill="#f8c87c"/><rect x="658.35" y="109.73" width="36.58" height="36.58" fill="#f6d0cc"/><path d="M 658.35 109.73 A 36.58 36.58 0 0 1  694.9300000000001 146.31 L 658.35 109.73 A 36.58 36.58 0 0 0 694.9300000000001 146.31" fill="#faf9f9"/><rect x="694.93" y="109.73" width="36.58" height="36.58" fill="#f5b9b3"/><path d="M 694.93 109.73 A 36.58 36.58 0 0 1  731.51 146.31 L 694.93 109.73 A 36.58 36.58 0 0 0 731.51 146.31" fill="#f6c2bd"/><rect x="731.5" y="109.72500000000001" width="36.575" height="36.575" fill="#fafafa"/><rect x="731.5" y="109.73" width="18.29" height="18.29" fill="#f9e9ce"/><polygon points="731.5,109.73 749.79,128.02 731.5,128.02" fill="#b4ebf9"/><rect x="749.79" y="109.73" width="18.29" height="18.29" fill="#f3a8a0"/><path d="M 749.79 109.73 A 18.29 18.29 0 0 1  768.0799999999999 128.02 L 749.79 109.73 A 18.29 18.29 0 0 0 768.0799999999999 128.02" fill="#f6c9c5"/><rect x="731.5" y="128.01" width="18.29" height="18.29" fill="#f9e9cf"/><path d="M 731.5 128.01 A 18.29 18.29 0 0 0 749.79 146.29999999999998 L 749.79 128.01" fill="#f6c9c4"/><rect x="749.79" y="128.01" width="18.29" height="18.29" fill="#faf4eb"/><path d="M 749.79 146.29999999999998 A 18.29 18.29 0 0 0 768.0799999999999 128.01 L 749.79 128.01" fill="#f9dfb6"/><rect x="768.08" y="109.73" width="36.58" height="36.58" fill="#f7e1df"/><path d="M 768.08 109.73 A 36.58 36.58 0 0 1  804.6600000000001 146.31 L 768.08 109.73 A 36.58 36.58 0 0 0 804.6600000000001 146.31" fill="#f5ccc8"/><rect x="804.65" y="109.73" width="36.58" height="36.58" fill="#c9f0f9"/><path d="M 804.65 109.73 A 36.58 36.58 0 0 1 841.23 146.31 L 804.65 146.31" fill="#f5c7c2"/><rect x="841.225" y="109.72500000000001" width="36.575" height="36.575" fill="#fafafa"/><rect x="841.23" y="109.73" width="18.29" height="18.29" fill="#f1978e"/><path d="M 841.23 109.73 A 18.29 18.29 0 0 1  859.52 128.02 L 841.23 109.73 A 18.29 18.29 0 0 0 859.52 128.02" fill="#f8e9e7"/><rect x="859.51" y="109.73" width="18.29" height="18.29" fill="#f7d6d3"/><path d="M 859.51 128.02 A 18.29 18.29 0 0 0 877.8 109.73 L 859.51 109.73" fill="#f9ddb0"/><rect x="841.23" y="128.01" width="18.29" height="18.29" fill="#f9e0b8"/><polygon points="841.23,128.01 859.52,128.01 841.23,146.29999999999998" fill="#ed8176"/><rect x="859.51" y="128.01" width="18.29" height="18.29" fill="#e0f5fa"/><polygon points="859.51,128.01 877.8,128.01 859.51,146.29999999999998" fill="#f7dbd8"/><rect x="877.8" y="109.73" width="36.58" height="36.58" fill="#f7ccc8"/><polygon points="877.8,109.73 914.38,109.73 877.8,146.31" fill="#f1988f"/><rect x="914.3750000000001" y="109.72500000000001" width="36.575" height="36.575" fill="#fafafa"/><rect x="914.38" y="109.73" width="18.29" height="18.29" fill="#f9e9e8"/><path d="M 914.38 128.02 A 18.29 18.29 0 0 1  932.67 109.73 L 914.38 128.02 A 18.29 18.29 0 0 0 932.67 109.73" fill="#f6c5c1"/><rect x="932.66" y="109.73" width="18.29" height="18.29" fill="#faf5ed"/><path d="M 932.66 109.73 A 18.29 18.29 0 0 1  950.9499999999999 128.02 L 932.66 109.73 A 18.29 18.29 0 0 0 950.9499999999999 128.02" fill="#e0f5fa"/><rect x="914.38" y="128.01" width="18.29" height="18.29" fill="#f3b6b0"/><path d="M 914.38 128.01 A 18.29 18.29 0 0 1  932.67 146.29999999999998 L 914.38 128.01 A 18.29 18.29 0 0 0 932.67 146.29999999999998" fill="#b2ebf9"/><rect x="932.66" y="128.01" width="18.29" height="18.29" fill="#ef988f"/><path d="M 932.66 128.01 A 18.29 18.29 0 0 1  950.9499999999999 146.29999999999998 L 932.66 128.01 A 18.29 18.29 0 0 0 950.9499999999999 146.29999999999998" fill="#a9e9f9"/><rect x="950.95" y="109.72500000000001" width="36.575" height="36.575" fill="#fafafa"/><rect x="950.95" y="109.73" width="18.29" height="18.29" fill="#ec786c"/><polygon points="950.95,109.73 969.24,109.73 969.24,128.02" fill="#f7d4d0"/><rect x="969.24" y="109.73" width="18.29" height="18.29" fill="#f8c676"/><path d="M 969.24 109.73 A 18.29 18.29 0 0 1  987.53 128.02 L 969.24 109.73 A 18.29 18.29 0 0 0 987.53 128.02" fill="#f09b93"/><rect x="950.95" y="128.01" width="18.29" height="18.29" fill="#f3aea7"/><path d="M 950.95 128.01 A 18.29 18.29 0 0 1  969.24 146.29999999999998 L 950.95 128.01 A 18.29 18.29 0 0 0 969.24 146.29999999999998" fill="#f9e4c2"/><rect x="969.24" y="128.01" width="18.29" height="18.29" fill="#f4b7b1"/><path d="M 969.24 128.01 A 18.29 18.29 0 0 1 987.53 146.29999999999998 L 969.24 146.29999999999998" fill="#faf4ea"/><rect x="987.53" y="109.73" width="36.58" height="36.58" fill="#c6eff9"/><path d="M 987.53 146.31 A 36.58 36.58 0 0 0 1024.11 109.73 L 987.53 109.73" fill="#f8c97f"/><rect x="1024.1000000000001" y="109.72500000000001" width="36.575" height="36.575" fill="#fafafa"/><rect x="1024.1" y="109.73" width="18.29" height="18.29" fill="#ed7f73"/><path d="M 1024.1 128.02 A 18.29 18.29 0 0 1  1042.3899999999999 109.73 L 1024.1 128.02 A 18.29 18.29 0 0 0 1042.3899999999999 109.73" fill="#f29a91"/><rect x="1042.39" y="109.73" width="18.29" height="18.29" fill="#bfeef9"/><path d="M 1042.39 128.02 A 18.29 18.29 0 0 1  1060.68 109.73 L 1042.39 128.02 A 18.29 18.29 0 0 0 1060.68 109.73" fill="#faf9f8"/><rect x="1024.1" y="128.01" width="18.29" height="18.29" fill="#faf7f7"/><path d="M 1024.1 128.01 A 18.29 18.29 0 0 1  1042.3899999999999 146.29999999999998 L 1024.1 128.01 A 18.29 18.29 0 0 0 1042.3899999999999 146.29999999999998" fill="#f3b7b1"/><rect x="1042.39" y="128.01" width="18.29" height="18.29" fill="#f9e6c7"/><polygon points="1042.39,128.01 1060.68,128.01 1042.39,146.29999999999998" fill="#f6c7c2"/><rect x="1060.68" y="109.73" width="36.58" height="36.58" fill="#ee8d83"/><polygon points="1097.26,109.73 1097.26,146.31 1060.68,146.31" fill="#c4eff9"/><rect x="1097.25" y="109.72500000000001" width="36.575" height="36.575" fill="#fafafa"/><rect x="1097.25" y="109.73" width="18.29" height="18.29" fill="#f4bbb5"/><path d="M 1097.25 128.02 A 18.29 18.29 0 0 0 1115.54 109.73 L 1097.25 109.73" fill="#a9e9f9"/><rect x="1115.54" y="109.73" width="18.29" height="18.29" fill="#e1f5fa"/><polygon points="1133.83,109.73 1133.83,128.02 1115.54,128.02" fill="#f1aba3"/><rect x="1097.25" y="128.01" width="18.29" height="18.29" fill="#f8dfdd"/><path d="M 1097.25 146.29999999999998 A 18.29 18.29 0 0 1  1115.54 128.01 L 1115.54 146.29999999999998" fill="#f8e0dd"/><rect x="1115.54" y="128.01" width="18.29" height="18.29" fill="#f4bcb5"/><path d="M 1115.54 146.29999999999998 A 18.29 18.29 0 0 1  1133.83 128.01 L 1115.54 146.29999999999998 A 18.29 18.29 0 0 0 1133.83 128.01" fill="#f7d9d6"/><rect x="1133.83" y="109.73" width="36.58" height="36.58" fill="#f7dfdd"/><path d="M 1133.83 109.73 A 36.58 36.58 0 0 1  1170.4099999999999 146.31 L 1133.83 109.73 A 36.58 36.58 0 0 0 1170.4099999999999 146.31" fill="#f8e2e0"/><rect x="1170.4" y="109.72500000000001" width="36.575" height="36.575" fill="#fafafa"/><rect x="1170.4" y="109.73" width="18.29" height="18.29" fill="#faf7f7"/><path d="M 1170.4 128.02 A 18.29 18.29 0 0 0 1188.69 109.73 L 1170.4 109.73" fill="#f3a59d"/><rect x="1188.69" y="109.73" width="18.29" height="18.29" fill="#f7ccc8"/><polygon points="1188.69,109.73 1206.98,109.73 1206.98,128.02" fill="#f8cf8d"/><rect x="1170.4" y="128.01" width="18.29" height="18.29" fill="#daf3fa"/><path d="M 1170.4 146.29999999999998 A 18.29 18.29 0 0 1  1188.69 128.01 L 1170.4 146.29999999999998 A 18.29 18.29 0 0 0 1188.69 128.01" fill="#f8c575"/><rect x="1188.69" y="128.01" width="18.29" height="18.29" fill="#f6c9c5"/><path d="M 1188.69 146.29999999999998 A 18.29 18.29 0 0 1  1206.98 128.01 L 1188.69 146.29999999999998 A 18.29 18.29 0 0 0 1206.98 128.01" fill="#ec796d"/><rect x="1206.9750000000001" y="109.72500000000001" width="36.575" height="36.575" fill="#fafafa"/><rect x="1206.98" y="109.73" width="18.29" height="18.29" fill="#f4b3ac"/><path d="M 1206.98 109.73 A 18.29 18.29 0 0 1  1225.27 128.02 L 1206.98 109.73 A 18.29 18.29 0 0 0 1225.27 128.02" fill="#f4b5af"/><rect x="1225.26" y="109.73" width="18.29" height="18.29" fill="#f9deb4"/><polygon points="1225.26,109.73 1243.55,128.02 1225.26,128.02" fill="#f8e1de"/><rect x="1206.98" y="128.01" width="18.29" height="18.29" fill="#f4b4ae"/><path d="M 1206.98 146.29999999999998 A 18.29 18.29 0 0 1  1225.27 128.01 L 1206.98 146.29999999999998 A 18.29 18.29 0 0 0 1225.27 128.01" fill="#f2f8fa"/><rect x="1225.26" y="128.01" width="18.29" height="18.29" fill="#e85343"/><path d="M 1225.26 146.29999999999998 A 18.29 18.29 0 0 1  1243.55 128.01 L 1225.26 146.29999999999998 A 18.29 18.29 0 0 0 1243.55 128.01" fill="#f8e5e3"/><rect x="1243.5500000000002" y="109.72500000000001" width="36.575" height="36.575" fill="#fafafa"/><rect x="1243.55" y="109.73" width="18.29" height="18.29" fill="#c7eff9"/><path d="M 1243.55 109.73 A 18.29 18.29 0 0 1  1261.84 128.02 L 1243.55 109.73 A 18.29 18.29 0 0 0 1261.84 128.02" fill="#f9f1f0"/><rect x="1261.84" y="109.73" width="18.29" height="18.29" fill="#b9ecf9"/><path d="M 1261.84 128.02 A 18.29 18.29 0 0 1  1280.1299999999999 109.73 L 1261.84 128.02 A 18.29 18.29 0 0 0 1280.1299999999999 109.73" fill="#f8c87b"/><rect x="1243.55" y="128.01" width="18.29" height="18.29" fill="#f8e6e4"/><path d="M 1243.55 128.01 A 18.29 18.29 0 0 1  1261.84 146.29999999999998 L 1243.55 128.01 A 18.29 18.29 0 0 0 1261.84 146.29999999999998" fill="#f19a90"/><rect x="1261.84" y="128.01" width="18.29" height="18.29" fill="#f8e4e2"/><path d="M 1261.84 146.29999999999998 A 18.29 18.29 0 0 0 1280.1299999999999 128.01 L 1261.84 128.01" fill="#f4b5ae"/><rect x="1280.13" y="109.73" width="36.58" height="36.58" fill="#faf7f6"/><polygon points="1280.13,109.73 1316.71,109.73 1316.71,146.31" fill="#f6d1cd"/><rect x="1316.7" y="109.73" width="36.58" height="36.58" fill="#f9f0ef"/><path d="M 1316.7 109.73 A 36.58 36.58 0 0 1  1353.28 146.31 L 1316.7 109.73 A 36.58 36.58 0 0 0 1353.28 146.31" fill="#aeeaf9"/><rect x="1353.28" y="109.73" width="36.58" height="36.58" fill="#ee887d"/><polygon points="1353.28,109.73 1389.86,109.73 1353.28,146.31" fill="#f6cbc6"/><rect x="1389.85" y="109.73" width="36.58" height="36.58" fill="#f3ada5"/><path d="M 1389.85 109.73 A 36.58 36.58 0 0 1  1426.4299999999998 146.31 L 1389.85 109.73 A 36.58 36.58 0 0 0 1426.4299999999998 146.31" fill="#f5b7b1"/><rect x="1426.4250000000002" y="109.72500000000001" width="36.575" height="36.575" fill="#fafafa"/><rect x="1426.43" y="109.73" width="18.29" height="18.29" fill="#f8e1de"/><polygon points="1426.43,109.73 1444.72,109.73 1426.43,128.02" fill="#faf6f5"/><rect x="1444.71" y="109.73" width="18.29" height="18.29" fill="#f9efee"/><path d="M 1444.71 109.73 A 18.29 18.29 0 0 1  1463 128.02 L 1444.71 109.73 A 18.29 18.29 0 0 0 1463 128.02" fill="#ccf0f9"/><rect x="1426.43" y="128.01" width="18.29" height="18.29" fill="#f3a59d"/><polygon points="1426.43,128.01 1444.72,128.01 1426.43,146.29999999999998" fill="#f3aaa3"/><rect x="1444.71" y="128.01" width="18.29" height="18.29" fill="#f4f9fa"/><path d="M 1444.71 146.29999999999998 A 18.29 18.29 0 0 1  1463 128.01 L 1463 146.29999999999998" fill="#f7d6d3"/><rect x="0" y="146.3" width="36.575" height="36.575" fill="#fafafa"/><rect x="0" y="146.3" width="18.29" height="18.29" fill="#f9f1f0"/><polygon points="18.29,146.3 18.29,164.59 0,164.59" fill="#e3f5fa"/><rect x="18.29" y="146.3" width="18.29" height="18.29" fill="#d1f2fa"/><path d="M 18.29 164.59 A 18.29 18.29 0 0 1  36.58 146.3 L 18.29 164.59 A 18.29 18.29 0 0 0 36.58 146.3" fill="#f6d2ce"/><rect x="0" y="164.59" width="18.29" height="18.29" fill="#f1978d"/><polygon points="0,164.59 18.29,164.59 0,182.88" fill="#e95e4f"/><rect x="18.29" y="164.59" width="18.29" height="18.29" fill="#f7d9d5"/><polygon points="18.29,164.59 36.58,164.59 36.58,182.88" fill="#eef8fa"/><rect x="36.58" y="146.3" width="36.58" height="36.58" fill="#e2f5fa"/><polygon points="36.58,146.3 73.16,146.3 73.16,182.88" fill="#ebf7fa"/><rect x="73.15" y="146.3" width="36.575" height="36.575" fill="#fafafa"/><rect x="73.15" y="146.3" width="18.29" height="18.29" fill="#f9edec"/><polygon points="73.15,146.3 91.44,164.59 73.15,164.59" fill="#ddf4fa"/><rect x="91.44" y="146.3" width="18.29" height="18.29" fill="#f7d2ce"/><polygon points="109.72999999999999,146.3 109.72999999999999,164.59 91.44,164.59" fill="#faf6f5"/><rect x="73.15" y="164.59" width="18.29" height="18.29" fill="#f8e9e7"/><polygon points="91.44,164.59 91.44,182.88 73.15,182.88" fill="#f7d5d1"/><rect x="91.44" y="164.59" width="18.29" height="18.29" fill="#f9e4c2"/><polygon points="109.72999999999999,164.59 109.72999999999999,182.88 91.44,182.88" fill="#ecf7fa"/><rect x="109.73" y="146.3" width="36.58" height="36.58" fill="#f9f1f0"/><polygon points="146.31,146.3 146.31,182.88 109.73,182.88" fill="#e85141"/><rect x="146.3" y="146.3" width="36.575" height="36.575" fill="#fafafa"/><rect x="146.3" y="146.3" width="18.29" height="18.29" fill="#f4b5ae"/><path d="M 146.3 146.3 A 18.29 18.29 0 0 1  164.59 164.59 L 146.3 146.3 A 18.29 18.29 0 0 0 164.59 164.59" fill="#f9d59c"/><rect x="164.59" y="146.3" width="18.29" height="18.29" fill="#f8dfdd"/><polygon points="182.88,146.3 182.88,164.59 164.59,164.59" fill="#f9d49a"/><rect x="146.3" y="164.59" width="18.29" height="18.29" fill="#f8ca81"/><path d="M 146.3 182.88 A 18.29 18.29 0 0 1  164.59 164.59 L 146.3 182.88 A 18.29 18.29 0 0 0 164.59 164.59" fill="#e8f6fa"/><rect x="164.59" y="164.59" width="18.29" height="18.29" fill="#f9f3f2"/><polygon points="164.59,164.59 182.88,164.59 164.59,182.88" fill="#f6c3be"/><rect x="182.875" y="146.3" width="36.575" height="36.575" fill="#fafafa"/><rect x="182.88" y="146.3" width="18.29" height="18.29" fill="#faf7f7"/><path d="M 182.88 164.59 A 18.29 18.29 0 0 0 201.17 146.3 L 182.88 146.3" fill="#f2a097"/><rect x="201.16" y="146.3" width="18.29" height="18.29" fill="#f9d9a7"/><polygon points="201.16,146.3 219.45,146.3 219.45,164.59" fill="#f9f2f2"/><rect x="182.88" y="164.59" width="18.29" height="18.29" fill="#e85748"/><path d="M 182.88 164.59 A 18.29 18.29 0 0 1  201.17 182.88 L 182.88 164.59 A 18.29 18.29 0 0 0 201.17 182.88" fill="#faf4f4"/><rect x="201.16" y="164.59" width="18.29" height="18.29" fill="#b3ebf9"/><path d="M 201.16 164.59 A 18.29 18.29 0 0 1  219.45 182.88 L 201.16 164.59 A 18.29 18.29 0 0 0 219.45 182.88" fill="#faefde"/><rect x="219.45" y="146.3" width="36.58" height="36.58" fill="#f7d7d4"/><polygon points="219.45,146.3 256.03,182.88 219.45,182.88" fill="#f4bbb5"/><rect x="256.02500000000003" y="146.3" width="36.575" height="36.575" fill="#fafafa"/><rect x="256.03" y="146.3" width="18.29" height="18.29" fill="#f5bab5"/><path d="M 256.03 146.3 A 18.29 18.29 0 0 1 274.32 164.59 L 256.03 164.59" fill="#f9edeb"/><rect x="274.31" y="146.3" width="18.29" height="18.29" fill="#f2a299"/><path d="M 274.31 164.59 A 18.29 18.29 0 0 1  292.6 146.3 L 274.31 164.59 A 18.29 18.29 0 0 0 292.6 146.3" fill="#f9dcaf"/><rect x="256.03" y="164.59" width="18.29" height="18.29" fill="#f8dbd8"/><path d="M 256.03 164.59 A 18.29 18.29 0 0 1 274.32 182.88 L 256.03 182.88" fill="#f7d9d6"/><rect x="274.31" y="164.59" width="18.29" height="18.29" fill="#f9edec"/><path d="M 274.31 164.59 A 18.29 18.29 0 0 1  292.6 182.88 L 274.31 164.59 A 18.29 18.29 0 0 0 292.6 182.88" fill="#f6d3cf"/><rect x="292.6" y="146.3" width="36.575" height="36.575" fill="#fafafa"/><rect x="292.6" y="146.3" width="18.29" height="18.29" fill="#bfeef9"/><polygon points="292.6,146.3 310.89000000000004,146.3 310.89000000000004,164.59" fill="#faf0e0"/><rect x="310.89" y="146.3" width="18.29" height="18.29" fill="#f5bdb8"/><polygon points="310.89,146.3 329.18,164.59 310.89,164.59" fill="#e95a4b"/><rect x="292.6" y="164.59" width="18.29" height="18.29" fill="#f8e2df"/><path d="M 292.6 182.88 A 18.29 18.29 0 0 0 310.89000000000004 164.59 L 292.6 164.59" fill="#f8c87c"/><rect x="310.89" y="164.59" width="18.29" height="18.29" fill="#f9eeec"/><path d="M 310.89 164.59 A 18.29 18.29 0 0 1  329.18 182.88 L 310.89 164.59 A 18.29 18.29 0 0 0 329.18 182.88" fill="#c3eff9"/><rect x="329.18" y="146.3" width="36.58" height="36.58" fill="#ed877d"/><path d="M 329.18 146.3 A 36.58 36.58 0 0 0 365.76 182.88 L 365.76 146.3" fill="#f8e8e6"/><rect x="365.75" y="146.3" width="36.575" height="36.575" fill="#fafafa"/><rect x="365.75" y="146.3" width="18.29" height="18.29" fill="#f8ce89"/><path d="M 365.75 146.3 A 18.29 18.29 0 0 1  384.04 164.59 L 365.75 146.3 A 18.29 18.29 0 0 0 384.04 164.59" fill="#faedd8"/><rect x="384.04" y="146.3" width="18.29" height="18.29" fill="#f8dedc"/><polygon points="384.04,146.3 402.33000000000004,146.3 384.04,164.59" fill="#faf5f5"/><rect x="365.75" y="164.59" width="18.29" height="18.29" fill="#f6c1bc"/><polygon points="365.75,164.59 384.04,182.88 365.75,182.88" fill="#f6d8d5"/><rect x="384.04" y="164.59" width="18.29" height="18.29" fill="#faeedb"/><polygon points="384.04,164.59 402.33000000000004,164.59 384.04,182.88" fill="#f9daa9"/><rect x="402.33" y="146.3" width="36.58" height="36.58" fill="#f7d5d1"/><path d="M 402.33 146.3 A 36.58 36.58 0 0 1 438.90999999999997 182.88 L 402.33 182.88" fill="#f6c5c0"/><rect x="438.90000000000003" y="146.3" width="36.575" height="36.575" fill="#fafafa"/><rect x="438.9" y="146.3" width="18.29" height="18.29" fill="#f0a29a"/><path d="M 438.9 164.59 A 18.29 18.29 0 0 1  457.19 146.3 L 438.9 164.59 A 18.29 18.29 0 0 0 457.19 146.3" fill="#f6c4bf"/><rect x="457.19" y="146.3" width="18.29" height="18.29" fill="#f7cdc9"/><polygon points="457.19,146.3 475.48,146.3 475.48,164.59" fill="#f9e8cc"/><rect x="438.9" y="164.59" width="18.29" height="18.29" fill="#faf8f7"/><path d="M 438.9 182.88 A 18.29 18.29 0 0 1  457.19 164.59 L 457.19 182.88" fill="#daf3fa"/><rect x="457.19" y="164.59" width="18.29" height="18.29" fill="#eef7fa"/><polygon points="457.19,164.59 475.48,182.88 457.19,182.88" fill="#f6c0bb"/><rect x="475.475" y="146.3" width="36.575" height="36.575" fill="#fafafa"/><rect x="475.48" y="146.3" width="18.29" height="18.29" fill="#f9daaa"/><path d="M 475.48 146.3 A 18.29 18.29 0 0 0 493.77000000000004 164.59 L 493.77000000000004 146.3" fill="#f9efee"/><rect x="493.76" y="146.3" width="18.29" height="18.29" fill="#f5cbc6"/><polygon points="512.05,146.3 512.05,164.59 493.76,164.59" fill="#f8e8e6"/><rect x="475.48" y="164.59" width="18.29" height="18.29" fill="#f6cac6"/><path d="M 475.48 164.59 A 18.29 18.29 0 0 0 493.77000000000004 182.88 L 493.77000000000004 164.59" fill="#a0e7f9"/><rect x="493.76" y="164.59" width="18.29" height="18.29" fill="#f9edec"/><path d="M 493.76 164.59 A 18.29 18.29 0 0 1  512.05 182.88 L 493.76 164.59 A 18.29 18.29 0 0 0 512.05 182.88" fill="#f1f8fa"/><rect x="512.05" y="146.3" width="36.58" height="36.58" fill="#f9d59c"/><path d="M 512.05 146.3 A 36.58 36.58 0 0 1  548.63 182.88 L 512.05 146.3 A 36.58 36.58 0 0 0 548.63 182.88" fill="#e85141"/><rect x="548.625" y="146.3" width="36.575" height="36.575" fill="#fafafa"/><rect x="548.63" y="146.3" width="18.29" height="18.29" fill="#f7d1ce"/><path d="M 548.63 164.59 A 18.29 18.29 0 0 1  566.92 146.3 L 566.92 164.59" fill="#f6c3be"/><rect x="566.91" y="146.3" width="18.29" height="18.29" fill="#beedf9"/><path d="M 566.91 146.3 A 18.29 18.29 0 0 1  585.1999999999999 164.59 L 566.91 146.3 A 18.29 18.29 0 0 0 585.1999999999999 164.59" fill="#f2a198"/><rect x="548.63" y="164.59" width="18.29" height="18.29" fill="#c1eef9"/><polygon points="548.63,164.59 566.92,164.59 566.92,182.88" fill="#f2a198"/><rect x="566.91" y="164.59" width="18.29" height="18.29" fill="#f5c0ba"/><polygon points="566.91,164.59 585.1999999999999,182.88 566.91,182.88" fill="#f9f3f3"/><rect x="585.2" y="146.3" width="36.58" height="36.58" fill="#f7e0de"/><polygon points="585.2,146.3 621.7800000000001,146.3 585.2,182.88" fill="#f8e2e0"/><rect x="621.78" y="146.3" width="36.58" height="36.58" fill="#f9e9e7"/><path d="M 621.78 146.3 A 36.58 36.58 0 0 1  658.36 182.88 L 621.78 146.3 A 36.58 36.58 0 0 0 658.36 182.88" fill="#f6c3be"/><rect x="658.35" y="146.3" width="36.575" height="36.575" fill="#fafafa"/><rect x="658.35" y="146.3" width="18.29" height="18.29" fill="#ecf7fa"/><polygon points="658.35,146.3 676.64,164.59 658.35,164.59" fill="#f8dfdd"/><rect x="676.64" y="146.3" width="18.29" height="18.29" fill="#faf7f2"/><path d="M 676.64 146.3 A 18.29 18.29 0 0 1  694.93 164.59 L 676.64 146.3 A 18.29 18.29 0 0 0 694.93 164.59" fill="#faf7f2"/><rect x="658.35" y="164.59" width="18.29" height="18.29" fill="#f9dbab"/><path d="M 658.35 182.88 A 18.29 18.29 0 0 1  676.64 164.59 L 658.35 182.88 A 18.29 18.29 0 0 0 676.64 164.59" fill="#f6c9c4"/><rect x="676.64" y="164.59" width="18.29" height="18.29" fill="#d8f3fa"/><path d="M 676.64 182.88 A 18.29 18.29 0 0 1  694.93 164.59 L 676.64 182.88 A 18.29 18.29 0 0 0 694.93 164.59" fill="#e8f6fa"/><rect x="694.93" y="146.3" width="36.58" height="36.58" fill="#f9efee"/><path d="M 694.93 146.3 A 36.58 36.58 0 0 1  731.51 182.88 L 694.93 146.3 A 36.58 36.58 0 0 0 731.51 182.88" fill="#f8e5e4"/><rect x="731.5" y="146.3" width="36.58" height="36.58" fill="#faeedc"/><path d="M 731.5 182.88 A 36.58 36.58 0 0 1  768.08 146.3 L 731.5 182.88 A 36.58 36.58 0 0 0 768.08 146.3" fill="#f7dddb"/><rect x="768.08" y="146.3" width="36.58" height="36.58" fill="#a1e8f9"/><path d="M 768.08 146.3 A 36.58 36.58 0 0 1  804.6600000000001 182.88 L 768.08 146.3 A 36.58 36.58 0 0 0 804.6600000000001 182.88" fill="#f29a91"/><rect x="804.6500000000001" y="146.3" width="36.575" height="36.575" fill="#fafafa"/><rect x="804.65" y="146.3" width="18.29" height="18.29" fill="#faf4eb"/><polygon points="804.65,146.3 822.9399999999999,146.3 804.65,164.59" fill="#f2afa8"/><rect x="822.94" y="146.3" width="18.29" height="18.29" fill="#ec766a"/><path d="M 822.94 146.3 A 18.29 18.29 0 0 1 841.23 164.59 L 822.94 164.59" fill="#f1968d"/><rect x="804.65" y="164.59" width="18.29" height="18.29" fill="#aeeaf9"/><path d="M 804.65 182.88 A 18.29 18.29 0 0 0 822.9399999999999 164.59 L 804.65 164.59" fill="#ec7e73"/><rect x="822.94" y="164.59" width="18.29" height="18.29" fill="#ea6b5e"/><path d="M 822.94 182.88 A 18.29 18.29 0 0 1  841.23 164.59 L 822.94 182.88 A 18.29 18.29 0 0 0 841.23 164.59" fill="#f7f9fa"/><rect x="841.23" y="146.3" width="36.58" height="36.58" fill="#e85445"/><path d="M 841.23 146.3 A 36.58 36.58 0 0 1 877.8100000000001 182.88 L 841.23 182.88" fill="#f9dfb6"/><rect x="877.8000000000001" y="146.3" width="36.575" height="36.575" fill="#fafafa"/><rect x="877.8" y="146.3" width="18.29" height="18.29" fill="#f7dbd8"/><polygon points="877.8,146.3 896.0899999999999,164.59 877.8,164.59" fill="#f3b0a8"/><rect x="896.09" y="146.3" width="18.29" height="18.29" fill="#f8e3e1"/><polygon points="914.38,146.3 914.38,164.59 896.09,164.59" fill="#f9d7a0"/><rect x="877.8" y="164.59" width="18.29" height="18.29" fill="#b6ecf9"/><path d="M 877.8 182.88 A 18.29 18.29 0 0 0 896.0899999999999 164.59 L 877.8 164.59" fill="#faf3e8"/><rect x="896.09" y="164.59" width="18.29" height="18.29" fill="#f9e3c1"/><path d="M 896.09 182.88 A 18.29 18.29 0 0 1  914.38 164.59 L 914.38 182.88" fill="#f29e95"/><rect x="914.38" y="146.3" width="36.58" height="36.58" fill="#f9e0b8"/><polygon points="914.38,146.3 950.96,182.88 914.38,182.88" fill="#ea695b"/><rect x="950.95" y="146.3" width="36.58" height="36.58" fill="#e9f6fa"/><polygon points="987.5300000000001,146.3 987.5300000000001,182.88 950.95,182.88" fill="#f8d9d6"/><rect x="987.53" y="146.3" width="36.58" height="36.58" fill="#f3a9a1"/><path d="M 987.53 182.88 A 36.58 36.58 0 0 1  1024.11 146.3 L 1024.11 182.88" fill="#f4c3bd"/><rect x="1024.1000000000001" y="146.3" width="36.575" height="36.575" fill="#fafafa"/><rect x="1024.1" y="146.3" width="18.29" height="18.29" fill="#f1a8a0"/><path d="M 1024.1 146.3 A 18.29 18.29 0 0 1  1042.3899999999999 164.59 L 1024.1 146.3 A 18.29 18.29 0 0 0 1042.3899999999999 164.59" fill="#f9daaa"/><rect x="1042.39" y="146.3" width="18.29" height="18.29" fill="#f8cf8e"/><path d="M 1042.39 146.3 A 18.29 18.29 0 0 0 1060.68 164.59 L 1060.68 146.3" fill="#a2e8f9"/><rect x="1024.1" y="164.59" width="18.29" height="18.29" fill="#bbedf9"/><polygon points="1024.1,164.59 1042.3899999999999,182.88 1024.1,182.88" fill="#e85141"/><rect x="1042.39" y="164.59" width="18.29" height="18.29" fill="#f6c6c2"/><polygon points="1060.68,164.59 1060.68,182.88 1042.39,182.88" fill="#cef1fa"/><rect x="1060.6750000000002" y="146.3" width="36.575" height="36.575" fill="#fafafa"/><rect x="1060.68" y="146.3" width="18.29" height="18.29" fill="#b2ebf9"/><polygon points="1060.68,146.3 1078.97,146.3 1060.68,164.59" fill="#a9e9f9"/><rect x="1078.96" y="146.3" width="18.29" height="18.29" fill="#f3a59d"/><path d="M 1078.96 146.3 A 18.29 18.29 0 0 1  1097.25 164.59 L 1078.96 146.3 A 18.29 18.29 0 0 0 1097.25 164.59" fill="#faf5ee"/><rect x="1060.68" y="164.59" width="18.29" height="18.29" fill="#f8c677"/><path d="M 1060.68 182.88 A 18.29 18.29 0 0 1  1078.97 164.59 L 1060.68 182.88 A 18.29 18.29 0 0 0 1078.97 164.59" fill="#f0f8fa"/><rect x="1078.96" y="164.59" width="18.29" height="18.29" fill="#f9fafa"/><polygon points="1078.96,164.59 1097.25,164.59 1097.25,182.88" fill="#cff1fa"/><rect x="1097.25" y="146.3" width="36.58" height="36.58" fill="#f7d5d1"/><path d="M 1097.25 182.88 A 36.58 36.58 0 0 1  1133.83 146.3 L 1097.25 182.88 A 36.58 36.58 0 0 0 1133.83 146.3" fill="#f4f9fa"/><rect x="1133.825" y="146.3" width="36.575" height="36.575" fill="#fafafa"/><rect x="1133.83" y="146.3" width="18.29" height="18.29" fill="#f8e5e3"/><polygon points="1133.83,146.3 1152.12,146.3 1152.12,164.59" fill="#f8c472"/><rect x="1152.11" y="146.3" width="18.29" height="18.29" fill="#f9ebe9"/><path d="M 1152.11 164.59 A 18.29 18.29 0 0 1  1170.3999999999999 146.3 L 1152.11 164.59 A 18.29 18.29 0 0 0 1170.3999999999999 146.3" fill="#f9f2f2"/><rect x="1133.83" y="164.59" width="18.29" height="18.29" fill="#f2aea7"/><path d="M 1133.83 164.59 A 18.29 18.29 0 0 1  1152.12 182.88 L 1133.83 164.59 A 18.29 18.29 0 0 0 1152.12 182.88" fill="#c8f0f9"/><rect x="1152.11" y="164.59" width="18.29" height="18.29" fill="#e96153"/><path d="M 1152.11 182.88 A 18.29 18.29 0 0 0 1170.3999999999999 164.59 L 1152.11 164.59" fill="#b1ebf9"/><rect x="1170.4" y="146.3" width="36.575" height="36.575" fill="#fafafa"/><rect x="1170.4" y="146.3" width="18.29" height="18.29" fill="#f7d3cf"/><path d="M 1170.4 164.59 A 18.29 18.29 0 0 1  1188.69 146.3 L 1170.4 164.59 A 18.29 18.29 0 0 0 1188.69 146.3" fill="#f6d2ce"/><rect x="1188.69" y="146.3" width="18.29" height="18.29" fill="#eef8fa"/><path d="M 1188.69 164.59 A 18.29 18.29 0 0 1  1206.98 146.3 L 1188.69 164.59 A 18.29 18.29 0 0 0 1206.98 146.3" fill="#a4e8f9"/><rect x="1170.4" y="164.59" width="18.29" height="18.29" fill="#eef7fa"/><polygon points="1188.69,164.59 1188.69,182.88 1170.4,182.88" fill="#f8fafa"/><rect x="1188.69" y="164.59" width="18.29" height="18.29" fill="#f9d69f"/><path d="M 1188.69 182.88 A 18.29 18.29 0 0 0 1206.98 164.59 L 1188.69 164.59" fill="#ed8378"/><rect x="1206.98" y="146.3" width="36.58" height="36.58" fill="#f9d59c"/><polygon points="1206.98,146.3 1243.56,146.3 1206.98,182.88" fill="#afeaf9"/><rect x="1243.55" y="146.3" width="36.58" height="36.58" fill="#d5f2fa"/><polygon points="1243.55,146.3 1280.1299999999999,182.88 1243.55,182.88" fill="#f9e7cb"/><rect x="1280.125" y="146.3" width="36.575" height="36.575" fill="#fafafa"/><rect x="1280.13" y="146.3" width="18.29" height="18.29" fill="#d7f3fa"/><path d="M 1280.13 164.59 A 18.29 18.29 0 0 0 1298.42 146.3 L 1280.13 146.3" fill="#f6c8c4"/><rect x="1298.41" y="146.3" width="18.29" height="18.29" fill="#f6c7c2"/><path d="M 1298.41 164.59 A 18.29 18.29 0 0 1  1316.7 146.3 L 1298.41 164.59 A 18.29 18.29 0 0 0 1316.7 146.3" fill="#f9e2be"/><rect x="1280.13" y="164.59" width="18.29" height="18.29" fill="#faf4f4"/><path d="M 1280.13 164.59 A 18.29 18.29 0 0 1  1298.42 182.88 L 1280.13 164.59 A 18.29 18.29 0 0 0 1298.42 182.88" fill="#f7ddda"/><rect x="1298.41" y="164.59" width="18.29" height="18.29" fill="#f7d7d4"/><polygon points="1316.7,164.59 1316.7,182.88 1298.41,182.88" fill="#f8c573"/><rect x="1316.7" y="146.3" width="36.575" height="36.575" fill="#fafafa"/><rect x="1316.7" y="146.3" width="18.29" height="18.29" fill="#f6d2cf"/><path d="M 1316.7 146.3 A 18.29 18.29 0 0 1  1334.99 164.59 L 1316.7 146.3 A 18.29 18.29 0 0 0 1334.99 164.59" fill="#f2b2ac"/><rect x="1334.99" y="146.3" width="18.29" height="18.29" fill="#faf5f5"/><path d="M 1334.99 146.3 A 18.29 18.29 0 0 0 1353.28 164.59 L 1353.28 146.3" fill="#f9ecd6"/><rect x="1316.7" y="164.59" width="18.29" height="18.29" fill="#faf2e7"/><path d="M 1316.7 164.59 A 18.29 18.29 0 0 1 1334.99 182.88 L 1316.7 182.88" fill="#f9edec"/><rect x="1334.99" y="164.59" width="18.29" height="18.29" fill="#f9dcaf"/><path d="M 1334.99 182.88 A 18.29 18.29 0 0 1  1353.28 164.59 L 1353.28 182.88" fill="#f3a79f"/><rect x="1353.275" y="146.3" width="36.575" height="36.575" fill="#fafafa"/><rect x="1353.28" y="146.3" width="18.29" height="18.29" fill="#f9ead0"/><polygon points="1353.28,146.3 1371.57,164.59 1353.28,164.59" fill="#c7eff9"/><rect x="1371.56" y="146.3" width="18.29" height="18.29" fill="#f6c3be"/><path d="M 1371.56 146.3 A 18.29 18.29 0 0 1  1389.85 164.59 L 1371.56 146.3 A 18.29 18.29 0 0 0 1389.85 164.59" fill="#f9edeb"/><rect x="1353.28" y="164.59" width="18.29" height="18.29" fill="#f7dcd9"/><path d="M 1353.28 164.59 A 18.29 18.29 0 0 1  1371.57 182.88 L 1353.28 164.59 A 18.29 18.29 0 0 0 1371.57 182.88" fill="#f9e4c3"/><rect x="1371.56" y="164.59" width="18.29" height="18.29" fill="#e74f3f"/><polygon points="1371.56,164.59 1389.85,164.59 1371.56,182.88" fill="#f5c3bd"/><rect x="1389.8500000000001" y="146.3" width="36.575" height="36.575" fill="#fafafa"/><rect x="1389.85" y="146.3" width="18.29" height="18.29" fill="#f8c87c"/><path d="M 1389.85 164.59 A 18.29 18.29 0 0 1  1408.1399999999999 146.3 L 1389.85 164.59 A 18.29 18.29 0 0 0 1408.1399999999999 146.3" fill="#f8e3e0"/><rect x="1408.14" y="146.3" width="18.29" height="18.29" fill="#f9dfb5"/><path d="M 1408.14 164.59 A 18.29 18.29 0 0 1  1426.43 146.3 L 1408.14 164.59 A 18.29 18.29 0 0 0 1426.43 146.3" fill="#f2a29a"/><rect x="1389.85" y="164.59" width="18.29" height="18.29" fill="#f9ecd7"/><path d="M 1389.85 182.88 A 18.29 18.29 0 0 0 1408.1399999999999 164.59 L 1389.85 164.59" fill="#f5c1bc"/><rect x="1408.14" y="164.59" width="18.29" height="18.29" fill="#aceaf9"/><path d="M 1408.14 182.88 A 18.29 18.29 0 0 1  1426.43 164.59 L 1426.43 182.88" fill="#f7d0cc"/><rect x="1426.43" y="146.3" width="36.58" height="36.58" fill="#e7f6fa"/><polygon points="1426.43,146.3 1463.01,146.3 1463.01,182.88" fill="#faefdf"/></g></svg>